<svg width="107" height="161" viewBox="0 0 107 161" fill="none" xmlns="http://www.w3.org/2000/svg">
<path d="M97.0401 114.17L86.7301 111.41L101.59 132.21L101.43 132.53L89.9001 128.23L106.7 152.41L106.41 152.75L85.8301 143.87C84.7501 142.6 84.8301 140.95 84.2901 139.48C84.2208 139.095 84.117 138.717 83.9801 138.35C83.3301 136.49 82.9801 134.54 82.4201 132.65C80.7668 126.93 79.1634 121.193 77.6101 115.44C77.5376 114.964 77.434 114.493 77.3001 114.03C74.6401 103.64 71.5601 93.37 68.8501 83.03C68.6901 82.29 69.1401 81.79 69.5201 81.25C70.8601 79.35 72.2901 77.52 73.6401 75.62C74.2601 74.74 74.4401 74.05 73.6401 73.24C73.3223 72.9064 73.1343 72.4701 73.1101 72.01C73.7201 69.63 75.1101 67.59 76.1101 65.39C77.4501 62.5 78.7801 59.59 80.3701 56.82C80.6123 56.4007 80.7577 55.9326 80.7958 55.4499C80.8339 54.9672 80.7636 54.4821 80.5901 54.03C80.2075 53.2501 80.0221 52.3882 80.0501 51.52C80.2301 50.46 81.1201 49.79 81.5501 48.88C81.8401 48.36 81.4701 48.03 81.2201 47.66C80.1401 46.08 79.0601 44.5 78.0301 42.89C77.6214 42.201 77.0152 41.6505 76.2901 41.31C76.2113 41.0934 76.1838 40.8614 76.2099 40.6324C76.2359 40.4033 76.3147 40.1834 76.4401 39.99C77.7601 37.55 79.0001 35.06 80.3801 32.65C80.6701 32.15 80.9901 31.82 81.5901 32.19L86.0901 49.41C86.3901 50.52 86.7001 51.63 86.9801 52.75C87.0701 53.08 87.2401 53.53 86.9801 53.75C86.7201 53.97 86.2301 53.66 85.9201 53.44C85.0169 52.7148 84.0257 52.1067 82.9701 51.63L90.3201 67.2L81.9501 63.7L90.1401 79.1C89.9301 79.97 89.3701 79.54 88.9001 79.42L81.5001 77.41L94.5001 98.23L84.8201 95.23L84.5801 95.44L98.0401 114.09C97.8952 114.19 97.7265 114.25 97.5509 114.264C97.3753 114.279 97.1991 114.246 97.0401 114.17Z" fill="#230F3D"/>
<path d="M16.67 79.08C19.3367 74.08 22.03 69.08 24.75 64.08L24.5 63.84L16.5 67.24C18.22 63.63 19.76 60.43 21.29 57.24C21.9567 55.84 22.6233 54.4367 23.29 53.03C23.43 52.73 23.72 52.38 23.4 52.03C23.08 51.68 22.76 52.12 22.51 52.3C21.68 52.88 20.88 53.49 20.07 54.09C19.27 54.03 19.72 53.54 19.75 53.19C21.49 46.5233 23.2333 39.8567 24.98 33.19C25.07 32.85 25.2 32.53 25.31 32.19C25.4237 32.11 25.5613 32.0712 25.7 32.08C25.8361 32.1178 25.9601 32.1902 26.06 32.29C26.62 32.92 26.85 33.75 27.34 34.42C28.15 36.22 29.42 37.76 30.24 39.56C30.5215 40.0388 30.7272 40.5583 30.85 41.1C30.85 41.44 30.56 41.59 30.29 41.71C29.808 41.8818 29.3942 42.2045 29.11 42.63C27.9 44.25 26.79 45.94 25.61 47.63C25.24 48.14 24.96 48.63 25.47 49.26C25.9533 49.9376 26.375 50.6572 26.73 51.41C26.8198 51.7746 26.8198 52.1555 26.73 52.52C26.56 53 26.31 53.46 26.18 53.97C25.9331 54.4966 25.8326 55.08 25.8889 55.6589C25.9452 56.2378 26.1563 56.7908 26.5 57.26C29 61.75 31.3 66.34 33.5 71.01C33.6606 71.3191 33.7463 71.6617 33.75 72.01C33.7448 72.4204 33.5839 72.8136 33.3 73.11C32.19 74.11 32.7 74.96 33.44 75.92C34.62 77.48 35.81 79.03 36.93 80.63C37.3422 81.149 37.6234 81.7595 37.75 82.41C37.6652 84.0324 37.3278 85.6316 36.75 87.15C34.35 95.89 32.04 104.65 29.75 113.42C29.52 114.1 29.38 114.81 29.17 115.49C27.98 118.56 27.31 121.78 26.42 124.93C26.3 125.26 26.18 125.6 26.09 125.93C25.82 126.46 25.95 127.09 25.7 127.63C25.601 127.957 25.5307 128.291 25.49 128.63C24.18 133.18 22.99 137.76 21.84 142.35C21.7653 142.691 21.6233 143.013 21.4224 143.298C21.2215 143.583 20.9657 143.825 20.67 144.01C17.9 145.45 14.95 146.49 12.09 147.72C8.61 149.22 5.09 150.72 1.65 152.18C1.15693 152.485 0.576851 152.619 0 152.56L16.87 128.25L5.34 132.58L5.12 132.32L20.08 111.41L8.49 114.41L22.49 95.07L13.95 97.59C13.52 97.75 13.04 98.02 12.95 97.22L25.36 77.41L17.94 79.41C17.5 79.51 16.88 79.97 16.67 79.08Z" fill="#230F3D"/>
<path d="M26.1502 125.09C26.7755 121.769 27.6924 118.51 28.8902 115.35C28.9691 115.269 29.0701 115.214 29.1805 115.191C29.2908 115.168 29.4056 115.178 29.5102 115.22C30.9061 116.962 32.1824 118.796 33.3302 120.71C34.6802 122.94 36.2202 125.05 37.5802 127.28C37.8702 127.67 38.2402 128 38.5802 128.36C40.1702 130.78 41.8102 133.16 43.3802 135.58C43.7075 136.185 44.082 136.764 44.5002 137.31C44.5826 137.419 44.6594 137.533 44.7302 137.65C45.6302 139.12 46.6202 140.53 47.6502 141.92C47.7702 142.08 47.8902 142.25 48.0002 142.42C48.5602 143.34 49.1802 144.23 49.8002 145.11C50.4141 146.158 51.1025 147.161 51.8602 148.11C52.1118 148.635 52.4239 149.128 52.7902 149.58C52.9168 149.723 53.0538 149.857 53.2002 149.98C54.3802 150.1 54.2702 148.87 54.8702 148.39C56.1926 146.666 57.3922 144.852 58.4602 142.96C59.6587 140.945 60.9743 139.001 62.4002 137.14C62.8393 136.825 63.2017 136.415 63.4602 135.94C64.2402 134.5 65.3802 133.29 66.0402 131.79C66.1486 131.536 66.2898 131.297 66.4602 131.08C66.9002 130.56 67.2702 129.98 67.6902 129.45C68.6902 128.14 69.4202 126.63 70.3802 125.29C70.9435 124.6 71.4677 123.879 71.9502 123.13C72.8311 122.026 73.6046 120.841 74.2602 119.59C74.3182 119.463 74.3885 119.343 74.4702 119.23C75.3059 118.246 76.0554 117.192 76.7102 116.08C76.7845 115.96 76.8681 115.847 76.9602 115.74C77.2202 115.5 77.4702 115.23 77.8902 115.35C79.0002 117.84 79.4102 120.54 80.1602 123.14C81.5402 127.95 82.8602 132.79 84.1602 137.62C84.2198 137.914 84.2599 138.211 84.2802 138.51C84.2785 138.833 84.3724 139.15 84.5502 139.42C84.9802 140.92 85.4002 142.42 85.8202 143.92L59.8202 157.01C58.0102 157.92 56.1902 158.8 54.4002 159.74C54.0986 159.923 53.7528 160.019 53.4002 160.019C53.0476 160.019 52.7017 159.923 52.4002 159.74C42.2202 154.567 32.0302 149.407 21.8302 144.26C21.4795 144.067 21.0789 143.983 20.6802 144.02C21.7802 142.34 21.8802 140.35 22.4302 138.5C23.4302 135.17 24.2902 131.8 25.2202 128.5C25.4143 128.231 25.4968 127.898 25.4502 127.57L25.8302 126.07C25.9554 125.942 26.0495 125.788 26.105 125.618C26.1605 125.447 26.176 125.267 26.1502 125.09Z" fill="#513B7A"/>
<path d="M25.5 32.15H25.37H25.24C25.3095 31.7822 25.2999 31.4039 25.2119 31.0402C25.124 30.6764 24.9598 30.3355 24.73 30.04C22.73 26.92 20.91 23.76 18.92 20.66C18.5622 20.1496 18.3128 19.5712 18.1872 18.9606C18.0616 18.3501 18.0626 17.7202 18.19 17.11C19.19 11.84 20.04 6.55 20.96 1.28C21.04 0.79 21.19 0.28 21.27 0C28.5 3.52 33.58 9.23 37.39 16.14C37.76 17.29 36.64 17.77 36.29 18.6C36.01 19.04 36.29 19.6 35.94 20.06C35.62 20.3 35.31 19.39 34.94 20.06C33.9236 20.9144 33.0137 21.8881 32.23 22.96L31.99 23.28C31.4895 23.7181 31.1019 24.2703 30.86 24.89C29.32 27.41 26.98 29.47 25.5 32.15Z" fill="#513B7A"/>
<path d="M69.11 16.5C71.34 13.25 73.48 9.94 75.84 6.79C76.99 5.26 78.84 4.46 80.39 3.3C81.72 2.3 83.14 1.4 84.49 0.420004C85.21 -0.109996 85.57 -0.199996 85.75 0.870004C86.75 6.6 87.75 12.32 88.75 18.04C88.8157 18.2545 88.838 18.4799 88.8157 18.7031C88.7934 18.9263 88.7269 19.1428 88.62 19.34C86.1933 23.2333 83.7733 27.1333 81.36 31.04C81.2522 31.1089 81.1225 31.1348 80.9966 31.1126C80.8706 31.0904 80.7576 31.0216 80.68 30.92C78.7267 28.6886 76.8973 26.3518 75.2 23.92C73.94 21.76 72.04 20.14 70.51 18.21C70.1 17.76 69.65 17.35 69.22 16.93C69.1711 16.8709 69.1358 16.8017 69.1168 16.7273C69.0978 16.653 69.0955 16.5754 69.11 16.5Z" fill="#513B7A"/>
<path d="M51.9901 13.93C52.403 13.6493 52.8907 13.4991 53.3901 13.4991C53.8894 13.4991 54.3771 13.6493 54.7901 13.93C54.4801 14.19 54.4401 14.41 54.6501 14.82C58.2901 21.96 61.9201 29.11 65.6501 36.22C65.9501 36.79 66.4801 37.29 66.1301 38.03C65.2901 38.47 64.6701 37.86 64.0301 37.53C60.9201 35.94 57.8801 34.21 54.8801 32.41C54.4682 32.1217 53.9777 31.9671 53.4751 31.9671C52.9724 31.9671 52.4819 32.1217 52.0701 32.41C49.0001 34.17 45.9601 36.01 42.7801 37.59C42.1701 37.89 41.5901 38.42 40.7801 38.1C40.4501 37.31 41.0101 36.74 41.3101 36.1C44.5801 29.38 48.0201 22.74 51.3101 16.04C51.7276 15.4131 51.963 14.6827 51.9901 13.93Z" fill="#9080BB"/>
<path d="M66 38.03C65.09 36.18 64.19 34.32 63.26 32.48C60.3 26.6333 57.3266 20.7867 54.3399 14.94C54.0599 14.39 53.79 13.89 54.79 13.94C57.73 14.84 60.68 15.72 63.62 16.64C64.4804 16.9366 65.3927 17.0524 66.3 16.98C67.76 17.51 69.3 17.64 70.73 18.42C70.9404 18.6256 71.0955 18.8808 71.1812 19.1622C71.2668 19.4436 71.2802 19.7421 71.22 20.03C70.84 21.78 70.35 23.49 69.96 25.24C68.96 28.9 68.1299 32.59 67.1999 36.24C67.1091 36.9498 66.867 37.6318 66.49 38.24C66.22 38.41 66.06 38.41 66 38.03Z" fill="#6D61AB"/>
<path d="M51.99 13.93C52.75 14.03 52.54 14.45 52.32 14.93C49.77 19.93 47.2 25 44.67 30.05C43.34 32.71 42.08 35.39 40.78 38.05C40.8203 38.0976 40.8494 38.1536 40.8653 38.2139C40.8812 38.2742 40.8835 38.3372 40.872 38.3985C40.8606 38.4598 40.8356 38.5177 40.7989 38.5682C40.7622 38.6186 40.7148 38.6602 40.66 38.69C40.12 38.53 40.09 38.03 39.99 37.6C38.9 32.97 37.62 28.41 36.5 23.79C36.29 22.54 35.5 21.38 35.87 20.04C36 19.53 35.49 19.04 35.87 18.52C37.4125 17.7657 39.0618 17.253 40.76 17C43.49 16.9 45.92 15.65 48.5 15C49.68 14.67 50.83 14.28 51.99 13.93Z" fill="#6D61AB"/>
<path d="M69.6499 25.2C69.9256 23.4489 70.3437 21.7232 70.8999 20.04C71.1299 19.3 71.4399 19.23 72.0199 19.78C73.2799 20.99 74.2999 22.4 75.4699 23.7C77.2725 26.2687 79.2365 28.7203 81.3499 31.04C81.3074 31.4356 81.3803 31.835 81.5599 32.19C80.6699 32.01 80.6199 32.88 80.4299 33.29C79.1799 36.02 77.2399 38.41 76.3799 41.29C76.3201 41.3414 76.2438 41.3696 76.1649 41.3696C76.086 41.3696 76.0097 41.3414 75.9499 41.29C74.7499 39.57 74.2599 37.54 73.4999 35.62C72.3999 32.81 71.1599 30.05 70.1499 27.21C69.9074 26.5612 69.7396 25.8868 69.6499 25.2Z" fill="#473772"/>
<path d="M40.7699 17C39.267 17.8497 37.5997 18.368 35.8799 18.52C36.3699 17.71 37.1799 17.12 37.3899 16.14C38.4399 16.71 39.6999 16.5 40.7699 17Z" fill="#4F3F78"/>
<path d="M70.5898 18.51C69.0603 18.3338 67.5922 17.8067 66.2998 16.97C67.2998 17.2 68.0998 16.2 69.1098 16.5C69.1491 16.5893 69.2205 16.6607 69.3098 16.7C69.7498 17.19 70.1798 17.7 70.6398 18.15C70.672 18.2072 70.6846 18.2734 70.6755 18.3384C70.6665 18.4035 70.6364 18.4637 70.5898 18.51Z" fill="#4C3C76"/>
<path d="M12.98 97.31C13.17 97.79 13.62 97.59 13.98 97.68L12.5 98.41C12.4502 98.1994 12.4701 97.9783 12.5566 97.78C12.6432 97.5816 12.7917 97.4167 12.98 97.31Z" fill="#6A5C7A"/>
<path d="M88.8599 79.41C89.2599 79.27 89.8599 79.66 90.0999 79.09C90.2377 79.1516 90.3466 79.2637 90.4043 79.4032C90.462 79.5427 90.464 79.6991 90.4099 79.84C90.2599 80.14 89.9799 79.95 89.7699 79.84C89.5599 79.73 89.0599 79.78 88.8599 79.41Z" fill="#726481"/>
<path d="M16.67 79.08C16.97 79.65 17.52 79.29 17.94 79.43C17.74 79.78 17.33 79.69 17.03 79.83C16.73 79.97 16.53 80.09 16.39 79.83C16.3554 79.763 16.3351 79.6895 16.3306 79.6142C16.326 79.539 16.3373 79.4636 16.3637 79.3929C16.3901 79.3223 16.431 79.2579 16.4837 79.204C16.5365 79.1501 16.5999 79.1079 16.67 79.08Z" fill="#726380"/>
<path d="M97.04 114.17L98.04 114.12C98.41 114.29 98.32 114.54 98.04 114.53C97.6874 114.473 97.3483 114.351 97.04 114.17Z" fill="#756683"/>
<path d="M19.7198 53.21C19.8498 53.5 19.6398 53.92 20.0398 54.11C19.9398 54.3 19.7298 54.51 19.5998 54.37C19.2398 53.98 19.4298 53.57 19.7198 53.21Z" fill="#9689A1"/>
<path d="M51.68 148.27C50.7744 147.409 50.056 146.371 49.57 145.22C49.0652 144.223 48.4333 143.295 47.69 142.46L47.45 142.15C46.5361 140.558 45.5137 139.031 44.39 137.58C44.0734 136.905 43.6477 136.287 43.13 135.75C41.44 133.37 39.78 130.98 38.3 128.47C38.0148 127.936 37.68 127.431 37.3 126.96C36 124.87 34.66 122.8 33.16 120.84C31.8095 119.121 30.5863 117.307 29.5 115.41C29.276 114.762 29.276 114.058 29.5 113.41C30.05 109.88 31.21 106.51 32.1 103.06C33.79 96.58 35.56 90.13 37.28 83.66C37.377 83.1839 37.4504 82.7033 37.5 82.22C37.5988 82.1954 37.7026 82.2002 37.7985 82.234C37.8945 82.2678 37.9785 82.329 38.04 82.41C39.4293 84.0085 40.7088 85.699 41.87 87.47C41.66 89.67 40.33 91.47 39.87 93.63C39.6983 93.9972 39.6686 94.4151 39.7868 94.8029C39.905 95.1907 40.1627 95.521 40.51 95.73C41.18 96.31 42.05 96.73 42.35 97.65C41.9868 98.375 41.4554 99.0024 40.8 99.48C40.14 100.1 40.05 100.7 40.8 101.22C43.8 103.31 46.37 105.89 49.44 107.83C52.0678 107.985 54.7023 107.985 57.33 107.83C58.0589 107.503 58.7497 107.098 59.39 106.62C59.9093 106.445 60.349 106.09 60.63 105.62C62.0726 104.229 63.6096 102.939 65.23 101.76C66.85 100.41 66.86 100.43 65.43 98.97C65.0053 98.6234 64.6636 98.186 64.43 97.69C64.72 96.63 65.89 96.44 66.43 95.62C66.76 95.15 67.33 94.81 67.11 94.1C67.1324 93.4949 66.9759 92.8966 66.66 92.38C66.19 90.69 65.24 89.17 65 87.38C66 85.91 67.18 84.65 68.16 83.19C68.35 82.91 68.6 82.63 69.02 82.73C70.15 85.18 70.56 87.83 71.27 90.4C73.36 97.94 75.4 105.48 77.46 113.03C77.5294 113.36 77.5795 113.694 77.61 114.03C78.08 114.87 77.28 115.3 77 115.9C76.08 116.9 75.53 118.25 74.56 119.26C74.56 119.35 74.56 119.45 74.56 119.55C73.75 120.67 72.98 121.81 72.21 122.95C71.5831 123.694 71.0522 124.514 70.63 125.39C69.8213 126.858 68.902 128.262 67.88 129.59C67.21 129.9 67.02 130.59 66.66 131.15L66.36 131.71C65.36 133.13 64.36 134.5 63.46 135.98C63.2438 136.408 62.9859 136.813 62.69 137.19L58.69 142.98C57.47 144.71 56.28 146.45 55.1 148.21C54.6538 148.751 54.2557 149.33 53.91 149.94C53.57 150.47 53.23 150.43 52.84 150.01L52.59 149.73C52.29 149.29 52.24 148.62 51.68 148.27Z" fill="#694E9E"/>
<path d="M80.28 51.41C80.2875 51.8193 80.3618 52.2246 80.5 52.61C81.89 55 80.76 56.96 79.65 59.08C77.42 63.37 75.4 67.77 73.29 72.08C72.43 71.95 72.09 71.2 71.66 70.62C69.77 68.13 67.66 65.77 65.96 63.17C65.4 62.31 64.43 62.25 63.75 61.68C63.6386 61.3725 63.5978 61.0438 63.6307 60.7183C63.6636 60.3929 63.7693 60.079 63.94 59.8C64.42 58.53 64.83 57.24 65.35 55.99C65.6313 55.49 65.8464 54.9555 65.99 54.4C66.0295 54.263 66.0796 54.1292 66.14 54C66.74 52.89 66.89 51.59 67.61 50.53C67.7021 50.4212 67.8099 50.3269 67.93 50.25C68.53 50.1 69.01 49.61 69.67 49.61C69.9557 49.6513 70.2251 49.7688 70.45 49.95C72.14 51.24 73.66 52.73 75.33 54.05C77.33 55.61 76.83 55.71 78.27 53.71C78.87 52.92 79.19 51.83 80.28 51.41Z" fill="#513B7A"/>
<path d="M63.8899 61.73C65.4399 61.59 66.0299 62.73 66.7999 63.73C68.9199 66.55 71.1199 69.3 73.2899 72.08C74.8399 74.42 74.8399 74.41 73.1799 76.81C71.8099 78.81 70.1799 80.63 69.0199 82.72C68.1299 83.87 67.2699 85.05 66.3399 86.16C65.9999 86.57 65.8199 87.16 65.1699 87.27C64.2599 86.65 64.1699 85.56 63.8099 84.66C63.5046 83.7032 63.106 82.7788 62.6199 81.9C62.6199 81.08 63.2899 80.69 63.7199 80.17C63.9819 79.9104 64.1406 79.5643 64.1664 79.1963C64.1921 78.8284 64.0832 78.4636 63.8599 78.17C62.7699 76.47 61.4999 74.9 60.3799 73.17C59.8475 72.5523 59.5008 71.7965 59.3799 70.99C60.1799 68.1 61.4999 65.41 62.4999 62.52C62.7399 61.97 63.0899 61.41 63.8899 61.73Z" fill="#9080BB"/>
<path d="M80.2798 51.41C79.4298 52.66 78.5298 53.87 77.7598 55.16C77.3098 55.9 76.8598 55.93 76.3198 55.43C74.3198 53.63 72.1498 52.1 70.3198 50.16C69.9398 49.57 69.5898 48.99 70.7898 49.1C72.2091 49.4317 73.5826 49.9354 74.8798 50.6C75.4594 50.9488 76.1336 51.1074 76.8079 51.0536C77.4823 50.9998 78.1228 50.7363 78.6398 50.3C79.4979 49.6064 80.4343 49.0157 81.4298 48.54C81.5765 48.4958 81.733 48.4958 81.8798 48.54C81.9077 48.5653 81.93 48.5962 81.9453 48.6306C81.9605 48.6651 81.9684 48.7023 81.9684 48.74C81.9684 48.7777 81.9605 48.8149 81.9453 48.8494C81.93 48.8838 81.9077 48.9147 81.8798 48.94L80.2798 51.41Z" fill="#827697"/>
<path d="M81.8701 48.99L81.8001 48.56C80.5206 47.9618 79.3016 47.2419 78.1601 46.41C77.7429 46.1392 77.2649 45.9765 76.7692 45.9363C76.2734 45.8962 75.7755 45.9799 75.3201 46.18C73.6501 46.82 72.1001 47.87 70.2201 47.9C70.0749 47.8443 69.9516 47.7431 69.8687 47.6115C69.7857 47.4799 69.7477 47.325 69.7601 47.17C69.8052 46.8669 69.9397 46.5842 70.1463 46.358C70.3529 46.1317 70.6224 45.9723 70.9201 45.9C71.5501 45.72 72.1601 45.5 72.3101 44.73C73.4191 43.4661 74.6862 42.3503 76.0801 41.41H76.3801C76.6328 41.3119 76.9125 41.3096 77.1668 41.4035C77.421 41.4975 77.632 41.6812 77.7601 41.92C79.1001 43.92 80.5001 45.92 81.8801 47.99C82.1101 48.26 82.2501 48.63 81.8701 48.99Z" fill="#827697"/>
<path d="M77 115.97C77 115.27 77.78 114.84 77.61 114.1C78.01 114.44 77.9 114.89 77.87 115.32L77 115.97Z" fill="#725C9B"/>
<path d="M84.56 139.41C84.25 139.17 83.76 138.99 84.29 138.5C84.65 138.71 84.61 139.05 84.56 139.41Z" fill="#594579"/>
<path d="M26.5002 52.64V51.41C27.7902 52.41 28.4502 53.94 29.6002 55.07C30.2202 55.51 30.4602 54.82 30.8602 54.62C31.3118 54.3498 31.7198 54.0126 32.0702 53.62C32.4501 53.2264 32.8652 52.8682 33.3102 52.55C34.4502 51.55 35.6902 50.55 36.7902 49.55C36.9531 49.3263 37.1627 49.1407 37.4044 49.0061C37.6461 48.8714 37.9142 48.7908 38.1902 48.77C38.9402 48.92 39.0302 49.58 39.2402 50.13C40.2402 52.84 41.4202 55.48 42.3002 58.23C42.6302 59.39 43.4202 60.43 43.3002 61.73C41.6002 62.26 40.6302 63.62 39.6202 64.94C38.0102 67.03 36.3802 69.09 34.7702 71.18C34.4502 71.6 34.2202 72.18 33.5202 72.18C31.2702 67.18 28.7402 62.18 26.0902 57.37C25.4402 56.18 25.0102 55.13 25.8602 53.91C26.1655 53.5397 26.3842 53.1057 26.5002 52.64Z" fill="#513B7A"/>
<path d="M33.5 72.11C35.87 69.11 38.26 66.04 40.59 62.97C40.857 62.5453 41.237 62.2034 41.6874 61.9827C42.1378 61.7619 42.6408 61.6709 43.14 61.72C43.65 61.59 43.8 62.01 44.02 62.31C45.34 65.07 46.39 67.95 47.55 70.78C47.67 71.46 47.25 71.92 46.91 72.42C45.71 74.18 44.51 75.94 43.24 77.64C43.0385 77.8409 42.8821 78.0824 42.7814 78.3485C42.6806 78.6146 42.6378 78.8991 42.6558 79.183C42.6738 79.467 42.7522 79.7438 42.8857 79.9951C43.0192 80.2463 43.2047 80.4662 43.43 80.64C43.77 80.97 44.25 81.29 44.15 81.9C43.48 83.24 43.15 84.69 42.52 86.06C42.32 86.55 42.25 87.15 41.59 87.31L37.5 82.22C35.97 80.11 34.5 77.95 32.87 75.9C32.01 74.81 31.87 73.95 32.93 72.98C33.1593 72.7177 33.3511 72.4249 33.5 72.11Z" fill="#9080BB"/>
<path d="M36.8 23.68C38.19 28.41 39.39 33.24 40.5 38.07C40.5551 38.2587 40.6253 38.4426 40.71 38.62C40.9849 38.7296 41.2069 38.9409 41.33 39.21C41.72 40.21 42.51 41.04 42.5 42.21C41.8 44.34 40.36 46.03 39.08 47.82C38.9708 47.9814 38.8206 48.1109 38.6449 48.1953C38.4692 48.2796 38.2743 48.3158 38.08 48.3C37.7864 48.2386 37.5084 48.1183 37.2626 47.9464C37.0168 47.7745 36.8084 47.5546 36.65 47.3C34.79 45.41 32.65 43.83 30.71 42.06C30.49 41.86 29.98 41.82 30.23 41.31C30.43 41.31 30.64 41.31 30.7 41.03C31.9 37.03 33.51 33.23 34.99 29.35C35.62 27.51 36.24 25.61 36.8 23.68Z" fill="#513B7A"/>
<path d="M36.8 23.68C37.11 26.45 35.45 28.68 34.64 31.11C33.64 34.2 32.39 37.21 31.23 40.25C31.1913 40.4217 31.117 40.5834 31.0119 40.7246C30.9068 40.8659 30.7734 40.9835 30.62 41.07C29.5 38.79 27.93 36.78 27.03 34.41C26.8122 33.5942 26.3847 32.8495 25.79 32.25C25.7007 32.2482 25.6138 32.2204 25.54 32.17C25.9 29.71 28.06 28.44 29.27 26.54C29.7178 25.8797 30.1984 25.2422 30.71 24.63C31.05 24.07 31.59 23.63 31.93 23.1C32.93 21.95 33.93 20.82 34.93 19.74C35.39 19.39 35.57 19.88 35.85 20.05C36.2 21.25 36.5 22.47 36.8 23.68Z" fill="#473772"/>
<path d="M36.83 47.12L38.03 48.12C38.55 48.39 38.44 48.66 38.03 48.94L33.41 52.88C32.71 52.88 32.54 53.44 32.21 53.88C32.1037 54.1053 31.9491 54.3045 31.7573 54.4635C31.5655 54.6225 31.3411 54.7374 31.1 54.8C30.48 54.87 30.18 55.8 29.39 55.4C28.275 54.1867 27.3051 52.8477 26.5 51.41C26.1 50.69 25.4 50.16 25.19 49.32C25.1548 49.287 25.1275 49.2465 25.1102 49.2015C25.0929 49.1564 25.086 49.1081 25.09 49.06C25.09 48.97 25.09 48.92 25.15 48.92C25.89 48.54 26.45 48.99 26.91 49.42C27.7101 50.2723 28.7876 50.8118 29.9493 50.9419C31.111 51.072 32.2811 50.7842 33.25 50.13C34.25 49.54 35.45 49.13 36.52 48.59C36.71 48.18 36.17 47.95 36.26 47.59C36.35 47.23 36.42 46.99 36.83 47.12Z" fill="#827697"/>
<path d="M36.8298 47.12C36.7116 47.1818 36.6149 47.2779 36.5524 47.3957C36.4899 47.5135 36.4646 47.6475 36.4798 47.78C35.5598 48.2 34.8398 47.58 34.0698 47.28C29.7798 45.62 29.7798 45.61 25.8998 48.16C25.6341 48.3657 25.4101 48.6203 25.2398 48.91V49.32C24.8098 48.98 24.4998 48.6 24.8898 48.04C26.3765 45.8867 27.8698 43.74 29.3698 41.6C29.4577 41.4741 29.5852 41.3812 29.7319 41.3359C29.8786 41.2907 30.0362 41.2956 30.1798 41.35C32.5101 43.1383 34.7308 45.0651 36.8298 47.12Z" fill="#817597"/>
<path d="M25.79 32.23C26.86 32.58 26.98 33.47 27.03 34.39C26.4751 33.7611 26.0533 33.0263 25.79 32.23Z" fill="#4F4072"/>
<path d="M29.4999 113.41C29.4999 114.06 29.4999 114.71 29.4999 115.36H28.9199C28.9738 114.676 29.1715 114.012 29.4999 113.41Z" fill="#725A9C"/>
<path d="M26.5001 52.64C26.6101 53.2 26.6001 53.71 25.8701 53.84C25.8711 53.6041 25.9289 53.3719 26.0386 53.1631C26.1482 52.9542 26.3065 52.7748 26.5001 52.64Z" fill="#5B487A"/>
<path d="M26.1501 125.09C26.6101 125.56 26.5101 125.86 25.8701 126C25.8401 125.66 25.7801 125.31 26.1501 125.09Z" fill="#5B497C"/>
<path d="M25.4998 127.5C26.0998 127.98 25.6098 128.18 25.2698 128.43C25.2298 128.09 25.1598 127.74 25.4998 127.5Z" fill="#58457B"/>
<path d="M33.1201 120.85C33.2801 120.64 33.4801 120.67 33.5901 120.85C34.6701 122.99 36.4601 124.67 37.4001 126.85C37.4438 126.885 37.4792 126.929 37.5034 126.979C37.5277 127.029 37.5403 127.084 37.5403 127.14C37.5403 127.196 37.5277 127.251 37.5034 127.301C37.4792 127.351 37.4438 127.395 37.4001 127.43C35.8351 125.33 34.4055 123.132 33.1201 120.85Z" fill="#71589D"/>
<path d="M55.0601 148.22C56.0305 146.33 57.2627 144.586 58.7201 143.04C57.7202 145.011 56.4954 146.86 55.0701 148.55C54.9701 148.48 54.9401 148.4 54.9701 148.33C55.0001 148.26 55.0301 148.22 55.0601 148.22Z" fill="#71599C"/>
<path d="M63.2798 136.05C64.0003 134.431 65.0413 132.975 66.3398 131.77C65.6281 133.316 64.7061 134.756 63.5998 136.05C63.5812 136.075 63.557 136.095 63.5292 136.109C63.5015 136.123 63.4708 136.13 63.4398 136.13C63.4087 136.13 63.3781 136.123 63.3503 136.109C63.3226 136.095 63.2984 136.075 63.2798 136.05Z" fill="#6F579B"/>
<path d="M44.3901 137.58C45.779 138.831 46.8458 140.399 47.5001 142.15C46.272 140.766 45.2268 139.23 44.3901 137.58Z" fill="#725A9C"/>
<path d="M72.1098 122.95C72.6862 121.694 73.4974 120.561 74.4998 119.61C73.9197 120.969 73.1 122.212 72.0798 123.28C71.9798 123.21 71.9498 123.13 71.9798 123.06C72.0098 122.99 72.0798 122.95 72.1098 122.95Z" fill="#70589A"/>
<path d="M74.5601 119.32C75.2801 118.13 75.8101 116.8 77.0001 115.96C76.3601 117.21 75.8301 118.53 74.5601 119.32Z" fill="#725A9D"/>
<path d="M55.0601 148.22V148.55C54.7201 149.11 54.4201 149.7 54.0601 150.22C53.7001 150.74 53.1701 150.94 52.8901 150.07C53.4201 150.32 53.6701 150.07 53.9701 149.62C54.2701 149.17 54.5001 148.5 55.0601 148.22Z" fill="#725A9D"/>
<path d="M47.6899 142.46C48.1786 142.763 48.5983 143.166 48.9221 143.641C49.2459 144.116 49.4666 144.654 49.5699 145.22C48.7844 144.419 48.1478 143.484 47.6899 142.46Z" fill="#735B9E"/>
<path d="M72.1101 122.95V123.28C71.7492 124.093 71.2367 124.829 70.6001 125.45C70.7865 124.462 71.3225 123.575 72.1101 122.95Z" fill="#71589B"/>
<path d="M51.6802 148.27C52.4002 148.57 52.5302 148.78 52.6202 149.78C52.3719 149.603 52.161 149.378 51.9997 149.119C51.8384 148.86 51.7298 148.571 51.6802 148.27Z" fill="#715A9B"/>
<path d="M43.1299 135.76C43.4907 135.916 43.8003 136.17 44.0232 136.494C44.2461 136.817 44.3732 137.197 44.3899 137.59C43.8005 137.116 43.3625 136.48 43.1299 135.76Z" fill="#725A9D"/>
<path d="M66.6401 131.21C66.7801 130.48 66.9201 129.75 67.8601 129.65C67.5001 130.17 67.2701 130.86 66.6401 131.21Z" fill="#735A9F"/>
<path d="M37.4102 127.49V126.91C37.6854 127.069 37.9137 127.298 38.0718 127.574C38.2299 127.849 38.3121 128.162 38.3102 128.48C37.9142 128.252 37.5995 127.906 37.4102 127.49Z" fill="#71599D"/>
<path d="M63.2799 136.05H63.5999C63.5688 136.316 63.4657 136.568 63.3018 136.779C63.1379 136.991 62.9195 137.154 62.6699 137.25C62.6857 137.019 62.7478 136.794 62.8527 136.588C62.9575 136.382 63.1028 136.199 63.2799 136.05Z" fill="#6E5698"/>
<path d="M34.9702 19.73C34.2013 21.0366 33.1817 22.1785 31.9702 23.09C32.6278 21.7058 33.669 20.5395 34.9702 19.73Z" fill="#57437E"/>
<path d="M31.93 23.08C31.85 23.85 31.27 24.23 30.71 24.61C30.78 23.83 31.36 23.46 31.93 23.08Z" fill="#57437E"/>
<path d="M70.59 18.51V18.22C70.4966 18.1467 70.4666 18.0767 70.5 18.01C70.5 17.94 70.56 17.91 70.59 17.91C72.4571 19.6321 74.1061 21.5766 75.5 23.7C74.06 22.79 73.35 21.19 72.09 20.11C71.66 19.74 71.36 19.44 70.93 20.04C70.9959 19.5061 70.8758 18.9658 70.59 18.51Z" fill="#574580"/>
<path d="M70.5901 17.91V18.22C69.9817 17.8994 69.5225 17.354 69.3101 16.7C69.8645 16.9421 70.3172 17.37 70.5901 17.91Z" fill="#5F4D84"/>
<path d="M41.0002 39.27L40.6802 38.62C40.6802 38.42 40.7502 38.22 40.7802 38.03C44.1413 36.6345 47.3457 34.8882 50.3402 32.82C52.7602 31.12 54.6302 31.59 56.8302 33.05C59.7372 34.9775 62.8053 36.6504 66.0002 38.05L66.2702 38.36C66.4602 38.7 66.2702 38.95 66.0602 39.19C62.2802 41.54 58.2302 43.37 54.2702 45.37C54.0491 45.4945 53.8019 45.5657 53.5485 45.5778C53.295 45.59 53.0422 45.5428 52.8102 45.44C48.7902 43.53 44.8502 41.49 41.0002 39.27Z" fill="#BBAED5"/>
<path d="M66.0099 38.92C66.0999 38.72 66.1899 38.53 66.2699 38.34C67.3799 33.96 68.2699 29.53 69.6499 25.21C70.4799 25.8 70.3699 26.83 70.6499 27.65C72.4999 32.2 74.2499 36.8 76.0299 41.38C75.0299 42.84 73.5599 43.77 72.3399 44.99C72.0845 45.5321 71.6401 45.9624 71.0899 46.2C70.8433 46.2612 70.6124 46.3739 70.4125 46.5308C70.2125 46.6876 70.0481 46.885 69.9299 47.11C69.6107 47.4881 69.4124 47.9533 69.3607 48.4454C69.3089 48.9375 69.4062 49.4338 69.6399 49.87C69.0199 50.01 68.6399 50.71 67.8399 50.5C67.3399 49.5 68.3299 48.32 67.2999 47.5C66.3878 45.7983 65.3864 44.146 64.2999 42.55C64.1399 40.97 65.1599 39.98 66.0099 38.92Z" fill="#513B7A"/>
<path d="M42.26 97.59C41.49 96.94 40.76 96.25 39.94 95.67C39.7686 95.5858 39.6186 95.4636 39.5013 95.3129C39.384 95.1621 39.3026 94.9866 39.2631 94.7998C39.2236 94.6129 39.2271 94.4195 39.2733 94.2341C39.3196 94.0488 39.4074 93.8764 39.53 93.73C40.0869 92.8217 40.8468 92.055 41.75 91.49C43.92 89.68 45.84 87.57 48.28 86.08C48.4442 86.0413 48.6116 86.0179 48.78 86.01C51.78 86.01 54.88 86.01 57.92 86.01C58.2516 85.9621 58.5884 85.9621 58.92 86.01C61.38 88.5 64.14 90.64 66.79 92.91C67.05 93.25 67.41 93.55 67.31 94.05C67.89 94.52 67.69 94.93 67.25 95.38C66.4327 96.2269 65.5276 96.9845 64.55 97.64C64.5064 97.892 64.4099 98.132 64.2669 98.344C64.1238 98.556 63.9374 98.7353 63.72 98.87C62.46 99.87 61.26 100.98 60.02 102.03C59.3367 102.657 58.4475 103.013 57.52 103.03C54.78 103.03 52.04 103.03 49.3 103.03C48.9593 103.07 48.6141 103.018 48.3 102.88C45.9302 101.571 43.8701 99.7666 42.26 97.59Z" fill="#9080BB"/>
<path d="M42.2601 97.59C43.2854 98.3306 44.2516 99.1497 45.1501 100.04C45.9677 101.037 47.0358 101.799 48.2448 102.247C49.4538 102.695 50.7602 102.813 52.0301 102.59C53.1852 102.44 54.3549 102.44 55.5101 102.59C56.5832 102.746 57.6784 102.627 58.693 102.244C59.7075 101.861 60.608 101.227 61.3101 100.4C62.3101 99.4 63.4501 98.54 64.5201 97.62C65.2101 98.29 65.8701 98.99 66.6001 99.62C67.3301 100.25 67.1601 100.72 66.4601 101.28C64.5103 102.71 62.6377 104.242 60.8501 105.87C60.4501 106.2 60.0501 106.53 59.6201 106.87L57.8101 108.08C54.8687 108.33 51.9114 108.33 48.9701 108.08L42.0301 102.72C41.8455 102.559 41.6518 102.409 41.4501 102.27C39.3801 101.03 39.3101 100.61 40.9701 98.91C41.3901 98.41 41.8301 98.01 42.2601 97.59Z" fill="#3F2861"/>
<path d="M66.5698 93.16L59.6898 87.32C59.2998 87 58.8798 86.7 58.9398 86.1C59.6995 84.321 61.0199 82.839 62.6998 81.88C63.3998 81.88 63.3998 82.5 63.5698 82.94C64.1198 84.39 64.6398 85.86 65.1698 87.31C65.8738 88.992 66.4749 90.7151 66.9698 92.47C67.1398 92.87 67.1398 93.18 66.5698 93.16Z" fill="#3F2962"/>
<path d="M48.0398 86.41C45.2498 88.91 42.4798 91.41 39.5298 93.73C39.8898 91.5 41.2198 89.58 41.5998 87.34C42.1498 85.89 42.6698 84.43 43.2598 82.99C43.4298 82.58 43.3398 81.91 44.0698 81.89C45.8724 82.8967 47.2741 84.4926 48.0398 86.41Z" fill="#3F2961"/>
<path d="M48.9702 108.03H57.8102C56.1702 108.7 54.4602 108.28 52.8102 108.3C51.5002 108.32 50.2002 108.7 48.9702 108.03Z" fill="#78639E"/>
<path d="M66.5698 93.16C66.6924 93.0916 66.7943 92.9914 66.8647 92.87C66.9351 92.7486 66.9714 92.6104 66.9698 92.47C67.2598 92.95 67.8598 93.37 67.2798 94.03L66.5698 93.16Z" fill="#4A346E"/>
<path d="M59.6201 106.82C59.7462 106.578 59.9203 106.365 60.1318 106.193C60.3433 106.021 60.5878 105.894 60.8501 105.82C60.7702 106.091 60.6099 106.332 60.3903 106.511C60.1707 106.689 59.9022 106.797 59.6201 106.82Z" fill="#745C9D"/>
<path d="M67.6199 47.41C69.0199 48.32 67.9699 49.41 67.8899 50.48H67.8099C67.1198 51.6209 66.6326 52.8727 66.3699 54.18C66.3581 54.2708 66.3414 54.361 66.3199 54.45C65.956 54.8756 65.7448 55.4106 65.7199 55.97C65.2499 57.97 64.0699 59.68 63.8899 61.74C62.9999 61.86 62.8899 62.61 62.6399 63.26C61.6399 65.89 60.6399 68.52 59.6399 71.14C58.8499 71.38 58.7499 70.66 58.4599 70.26C56.7199 67.88 55.1699 65.38 53.3499 63.07C53.2669 62.942 53.2227 62.7926 53.2227 62.64C53.2227 62.4874 53.2669 62.338 53.3499 62.21C56.4999 57.01 58.9999 51.5 61.8399 46.14C62.433 44.9111 63.2122 43.7812 64.1499 42.79C65.0899 42.91 65.3399 43.79 65.7399 44.42C66.3799 45.41 67.0499 46.41 67.6199 47.41Z" fill="#6D61AB"/>
<path d="M69.6898 49.87C68.4998 48.41 68.4998 48.41 69.9798 47.11C69.9665 47.2472 69.9959 47.3852 70.0639 47.5051C70.1319 47.625 70.2352 47.721 70.3598 47.78C70.4198 48.07 70.0498 48.27 70.1898 48.57C70.3298 48.87 70.7698 48.87 70.5298 49.28C69.5298 49.36 70.8598 49.98 70.3198 50.17L69.6898 49.87Z" fill="#887D9F"/>
<path d="M66.3699 54.17C66.3288 53.4859 66.4362 52.801 66.6848 52.1623C66.9333 51.5237 67.3171 50.9463 67.8099 50.47C67.4884 51.7593 67.0045 53.0026 66.3699 54.17Z" fill="#7365A5"/>
<path d="M65.7199 55.96C65.5199 55.3 65.4799 54.7 66.3199 54.44C66.2811 54.9963 66.0716 55.5271 65.7199 55.96Z" fill="#7567A5"/>
<path d="M53.56 62.94C55.64 65.21 57.12 67.94 58.93 70.38C59.14 70.66 59.24 71.02 59.63 71.13C60.803 73.3479 62.2111 75.4332 63.83 77.35C64.94 78.81 64.83 79.9 63.53 81.05C63.24 81.31 62.98 81.6 62.7 81.88L58.94 86.1L58.41 86.41C55.0807 86.1764 51.7392 86.1764 48.41 86.41H48.07C46.8232 84.8289 45.4877 83.3198 44.07 81.89C41.63 79.48 41.61 79.47 43.53 76.63C44.82 74.71 46.16 72.83 47.53 70.94C48.21 68.77 49.85 67.19 51.03 65.33C51.519 64.3884 52.1765 63.5445 52.97 62.84C53.07 62.8159 53.1738 62.8123 53.2752 62.8295C53.3766 62.8467 53.4735 62.8843 53.56 62.94Z" fill="#BBAED5"/>
<path d="M69.6698 48.67C69.1698 47.8 70.3498 48.25 70.3598 47.78C72.0798 47.12 73.8398 46.51 75.5198 45.78C75.9282 45.5458 76.3989 45.4432 76.8677 45.4862C77.3365 45.5291 77.7807 45.7155 78.1398 46.02C79.3098 46.94 80.8298 47.37 81.7998 48.58C81.7283 48.6375 81.6413 48.6723 81.5498 48.68C80.6779 49.0706 79.7227 49.2389 78.7698 49.17C75.7398 48.99 72.6598 49.56 69.6698 48.67Z" fill="#FCFCFD"/>
<path d="M69.6699 48.67H81.5499C80.3343 49.6371 79.051 50.516 77.7099 51.3C77.4095 51.4859 77.0632 51.5844 76.7099 51.5844C76.3566 51.5844 76.0103 51.4859 75.7099 51.3L70.5299 49.3L69.6699 48.67Z" fill="#E6E2F0"/>
<path d="M71.1401 46.2L72.3901 44.99C72.4401 45.87 71.8501 46.1 71.1401 46.2Z" fill="#877B9E"/>
<path d="M52.9698 63.01L47.4998 70.93C46.4998 70 46.3298 68.66 45.8898 67.46C45.2698 65.73 44.1998 64.18 43.8198 62.35C43.0398 61.11 43.1398 59.47 42.0198 58.35C41.0198 55.59 39.9298 52.82 38.8498 50.06C38.6898 49.64 38.7598 48.99 38.0698 48.9C38.1623 48.7834 38.2126 48.6389 38.2126 48.49C38.2126 48.3411 38.1623 48.1967 38.0698 48.08C39.6698 47.08 40.1798 45.3 41.2398 43.91C41.6398 43.38 41.9798 42.8 42.3398 42.24C43.0198 42.24 43.1498 42.78 43.3398 43.24C46.3398 49.1 49.6998 54.78 52.5498 60.72C52.8798 61.41 53.3798 62.14 52.9698 63.01Z" fill="#6D61AB"/>
<path d="M42 58.41C42.44 58.17 42.65 58.41 42.75 58.8C43.1916 59.957 43.5263 61.152 43.75 62.37L43.1 61.74L42 58.41Z" fill="#7467A7"/>
<path d="M29.4102 55.41C30.0702 55.47 30.4102 54.68 31.1202 54.81C30.5702 55.04 30.4002 56.41 29.4102 55.41Z" fill="#8A7EA1"/>
<path d="M32.23 53.86C32.36 53.2 32.51 52.58 33.43 52.86L32.23 53.86Z" fill="#877A9E"/>
<path d="M52.97 63.01C52.24 60.24 50.65 57.86 49.38 55.34C47.26 51.14 44.96 47.04 42.73 42.89C42.61 42.68 42.45 42.49 42.3 42.28C41.87 41.28 41.44 40.28 41 39.28C43.2827 40.0629 45.4646 41.1135 47.5 42.41C49.27 43.41 51.16 44.09 52.88 45.14C53.5 45.53 53.95 45.14 54.41 44.88C58.2833 42.88 62.14 40.9067 65.98 38.96C65.67 40.25 64.46 41.17 64.49 42.61C64.49 42.79 64.3 42.83 64.18 42.92C60.65 48.96 57.5 55.27 54.4 61.56C54.15 62.06 53.17 62.09 53.56 62.94L52.97 63.01Z" fill="#9080BB"/>
<path d="M25.4998 48.05C26.7698 47.25 28.0498 46.47 29.2898 45.61C29.5461 45.4547 29.8401 45.3725 30.1398 45.3725C30.4395 45.3725 30.7335 45.4547 30.9898 45.61C32.8198 46.3 34.6298 47.02 36.4498 47.73C36.4498 48.17 37.6198 47.79 37.0898 48.62C33.6198 49.48 30.0898 49.07 26.5898 48.96C26.1998 49 25.2198 49.13 25.4998 48.05Z" fill="#FBFBFC"/>
<path d="M25.5002 48.05C25.6502 48.9 26.3202 48.65 26.8202 48.65C30.2402 48.65 33.6702 48.65 37.0902 48.65C35.0113 49.7464 32.8517 50.6825 30.6302 51.45C30.3698 51.5403 30.091 51.5648 29.8188 51.5211C29.5466 51.4775 29.2894 51.3672 29.0702 51.2L25.2402 48.91C25.0002 48.51 25.0002 48.19 25.5002 48.05Z" fill="#E5E2F0"/>
<path d="M64.21 42.88L64.52 42.57C65.8745 43.9612 66.9295 45.6152 67.62 47.43C66.19 46.13 65.72 44.12 64.21 42.88Z" fill="#7568A8"/>
<path d="M48.3799 86.41C48.8799 85.91 49.5199 86.14 50.0899 86.13C52.4032 86.13 54.7066 86.13 56.9999 86.13C57.4799 86.13 57.9999 85.96 58.4099 86.42L48.3799 86.41Z" fill="#C0B3D8"/>
</svg>
