<svg width="485" height="233" viewBox="0 0 485 233" fill="none" xmlns="http://www.w3.org/2000/svg">
<path d="M36.1627 0.106377L36.5926 0.0743793C43.8266 -0.429621 50.7127 1.62138 56.2147 6.42138C61.2147 10.7824 63.8397 16.4834 64.2677 23.0724C64.7037 29.7624 62.6646 36.1634 58.1656 41.1714C57.9056 41.4627 57.6383 41.7477 57.3637 42.0264C57.0897 42.3044 56.809 42.5757 56.5216 42.8404C56.2336 43.105 55.9396 43.3624 55.6396 43.6124C55.3396 43.8624 55.0333 44.105 54.7207 44.3404C54.4087 44.575 54.091 44.802 53.7677 45.0214C53.4443 45.2407 53.1157 45.452 52.7817 45.6554C52.4483 45.8587 52.11 46.0537 51.7667 46.2404C51.4233 46.427 51.0756 46.605 50.7236 46.7744C50.3716 46.9437 50.0157 47.1044 49.6557 47.2564C49.2957 47.4084 48.932 47.5514 48.5646 47.6854C48.198 47.8194 47.828 47.9444 47.4546 48.0604C47.0813 48.1764 46.7053 48.283 46.3267 48.3804C45.9487 48.4777 45.5683 48.5657 45.1856 48.6444C44.803 48.7231 44.4183 48.7921 44.0317 48.8514C43.6457 48.9114 43.2583 48.9617 42.8697 49.0024C42.481 49.043 42.0917 49.074 41.7017 49.0954C34.2767 49.6684 26.9307 48.4314 20.9617 43.6904C20.6617 43.451 20.368 43.2047 20.0807 42.9514C19.7927 42.698 19.5113 42.4377 19.2366 42.1704C18.9613 41.903 18.693 41.629 18.4317 41.3484C18.1703 41.0684 17.9156 40.7817 17.6676 40.4884C17.4203 40.1957 17.1803 39.897 16.9477 39.5924C16.715 39.2877 16.49 38.9774 16.2727 38.6614C16.0553 38.3454 15.8457 38.0244 15.6437 37.6984C15.4417 37.3724 15.248 37.0417 15.0626 36.7064C14.8773 36.3704 14.7003 36.0304 14.5317 35.6864C14.3623 35.3417 14.202 34.9934 14.0507 34.6414C13.8987 34.2894 13.7557 33.9337 13.6217 33.5744C13.4877 33.215 13.3623 32.8527 13.2456 32.4874C13.129 32.122 13.0217 31.754 12.9237 31.3834C12.825 31.0127 12.7357 30.64 12.6557 30.2654C12.5757 29.89 12.505 29.513 12.4436 29.1344C12.3816 28.7564 12.3293 28.3767 12.2866 27.9954C11.5486 21.3804 12.9407 14.7254 17.2187 9.50938C22.0277 3.64438 28.7557 0.858377 36.1627 0.106377Z" fill="#034538"/>
<path d="M58.4668 67.2124C59.5268 67.2624 60.5948 67.6644 61.3518 68.4274C62.3868 69.4704 62.5968 71.2104 62.6528 72.6034C62.7848 75.9114 62.3438 79.4564 62.2888 82.7934C62.2108 91.4247 62.0811 100.055 61.8998 108.684C61.6365 130.242 61.5581 151.801 61.6648 173.361C61.6728 184.93 61.1488 196.716 61.6838 208.256C62.0718 216.624 64.2498 220.075 71.9838 223.338C73.1678 223.837 74.6668 224.323 75.5648 225.27C76.1648 225.903 76.1158 226.501 76.0958 227.31C75.9418 227.428 75.8128 227.591 75.6328 227.664C73.8608 228.381 10.4058 227.508 3.3778 227.402C2.3318 227.414 1.2258 227.57 0.285798 227.043C-0.0062018 226.263 0.0277987 226.107 0.173799 225.279C1.6048 223.561 3.9708 223.327 6.0258 222.767C9.2648 221.885 12.3328 219.38 13.9268 216.449C15.3138 213.898 15.6148 211.242 15.7888 208.398C16.1858 201.905 15.8898 195.246 15.8918 188.736L15.9068 152.414L15.9368 124.409C15.9688 118.095 16.9028 104.411 15.2628 98.8594C12.7788 90.4474 6.3038 91.8514 0.0398036 88.4954C-0.0611964 87.7054 0.0378033 87.2004 0.248803 86.4354C0.909803 85.7184 1.7408 85.4254 2.6308 85.0874C9.8208 82.3534 17.4558 80.2904 24.7898 77.9254C35.9718 74.3184 47.1788 70.4504 58.4668 67.2124Z" fill="#034538"/>
<path d="M153.877 25.7163C154.429 25.7763 154.728 25.8833 155.205 26.1673C155.938 29.0453 155.317 34.5023 155.269 37.6203C155.095 48.8693 154.682 60.1163 154.568 71.3653C166.66 71.7233 178.926 70.5903 190.986 71.4603C191.078 73.5853 191.011 75.7363 191.01 77.8633L154.245 77.8833C154.638 87.8153 154.271 97.8943 154.27 107.842L154.258 165.794L154.207 186.478C154.202 191.211 154.027 196.021 154.628 200.722C155.137 204.703 156.211 208.584 158.724 211.8C161.495 215.346 165.382 217.4 169.829 217.901C182.151 219.287 185.837 212.708 194.343 206.106L194.644 205.877L194.994 206.112C195.705 206.582 196.704 207.076 197.097 207.863C197.392 208.453 197.301 209.171 197.094 209.784C194.902 216.271 182.224 224.988 176.234 227.877C169.297 230.759 162.544 232.124 155.036 232.43C142.929 232.923 129.184 230.745 119.999 222.185C114.65 217.201 111.43 210.589 109.971 203.475C108.567 196.629 108.831 189.379 108.831 182.421V162.261C108.832 134.161 109.411 105.946 108.489 77.8693C102.694 77.7833 91.1799 78.7183 86.1739 77.7873L85.8689 77.2593C85.8609 76.4893 85.8019 75.7323 86.0839 75.0003C86.4329 74.0933 89.2249 73.8553 90.1449 73.7183C100.023 72.2453 109.451 68.8103 117.426 62.6243C120.722 60.0336 123.825 57.229 126.734 54.2103C132.388 48.2573 137.81 41.9813 143.276 35.8503C145.897 32.9093 148.567 29.3653 151.593 26.8543C152.27 26.2923 153.053 25.9963 153.877 25.7163Z" fill="#034538"/>
<path d="M425.093 1.9923L425.66 1.9443C426.563 1.87696 427.466 1.83197 428.372 1.8093C429.276 1.78597 430.182 1.78496 431.087 1.8063C431.992 1.8283 432.896 1.87196 433.799 1.93729C434.701 2.00329 435.602 2.0913 436.501 2.2013C437.4 2.3113 438.295 2.44296 439.187 2.59629C440.079 2.75029 440.967 2.92596 441.851 3.1233C442.734 3.32063 443.612 3.53963 444.485 3.7803C445.358 4.02096 446.225 4.28263 447.085 4.5653C447.945 4.84797 448.797 5.15163 449.642 5.47629C450.487 5.80096 451.324 6.14629 452.152 6.51229C452.98 6.87762 453.799 7.2633 454.608 7.6693C455.417 8.0753 456.216 8.50096 457.005 8.9463C457.793 9.39096 458.57 9.85496 459.336 10.3383C460.101 10.821 460.854 11.3226 461.596 11.8433C462.336 12.3633 463.064 12.901 463.779 13.4563C464.494 14.0123 465.194 14.5853 465.881 15.1753C476.152 24.0843 483.613 37.4303 484.512 51.1323C485.535 66.7103 481.712 81.1253 471.159 92.9913C461.876 103.429 449.019 110.253 435.026 111.137C421.408 112.586 408.183 109.035 397.252 100.79C396.523 100.24 395.808 99.6716 395.107 99.0863C394.406 98.501 393.72 97.8986 393.049 97.2793C392.377 96.66 391.722 96.0246 391.081 95.3733C390.441 94.722 389.817 94.0553 389.209 93.3733C388.602 92.6913 388.011 91.995 387.438 91.2843C386.865 90.5736 386.309 89.8489 385.771 89.1103C385.233 88.3723 384.714 87.6213 384.213 86.8573C383.712 86.094 383.229 85.3186 382.767 84.5313C382.303 83.744 381.86 82.946 381.437 82.1373C381.013 81.328 380.609 80.509 380.225 79.6803C379.842 78.851 379.479 78.0129 379.136 77.1663C378.793 76.3196 378.472 75.4653 378.171 74.6033C377.87 73.7406 377.591 72.8713 377.333 71.9953C377.075 71.1193 376.838 70.2373 376.624 69.3493C376.409 68.4613 376.217 67.569 376.046 66.6723C375.875 65.775 375.725 64.874 375.599 63.9693C373.676 49.8953 377.543 34.7523 386.219 23.4643C395.891 10.8793 409.54 4.0293 425.093 1.9923ZM425.861 10.1783C412.99 11.6083 401.931 16.9663 393.724 27.1793C393.237 27.7793 392.765 28.391 392.309 29.0143C391.853 29.6376 391.412 30.272 390.987 30.9173C390.562 31.5626 390.152 32.218 389.76 32.8833C389.367 33.5486 388.991 34.2233 388.631 34.9073C388.272 35.5913 387.929 36.2836 387.604 36.9843C387.279 37.6856 386.971 38.3943 386.681 39.1103C386.39 39.8263 386.118 40.549 385.863 41.2783C385.608 42.0076 385.372 42.743 385.153 43.4843C384.935 44.2256 384.735 44.9716 384.554 45.7223C384.372 46.4736 384.209 47.2286 384.065 47.9873C383.92 48.7466 383.795 49.509 383.688 50.2743C383.581 51.0396 383.494 51.807 383.425 52.5763C383.356 53.3463 383.306 54.1173 383.276 54.8893C383.245 55.6613 383.233 56.4336 383.241 57.2063C383.248 57.979 383.275 58.751 383.32 59.5223C383.366 60.2936 383.431 61.0633 383.514 61.8313C383.598 62.6026 383.701 63.371 383.824 64.1363C383.946 64.9023 384.087 65.6646 384.248 66.4233C384.408 67.1826 384.587 67.9373 384.785 68.6873C384.982 69.4373 385.199 70.1816 385.434 70.9203C385.669 71.6596 385.921 72.3926 386.193 73.1193C386.464 73.846 386.754 74.5653 387.061 75.2773C387.368 75.9893 387.692 76.6933 388.035 77.3893C388.377 78.086 388.736 78.7733 389.113 79.4513C389.489 80.1293 389.882 80.7976 390.292 81.4563C390.701 82.115 391.127 82.763 391.569 83.4003C392.011 84.0376 392.468 84.6636 392.941 85.2783C393.414 85.8929 393.902 86.4953 394.405 87.0853C394.908 87.676 395.425 88.2536 395.957 88.8183C396.489 89.383 397.035 89.934 397.594 90.4713C398.153 91.0086 398.725 91.5319 399.31 92.0413C399.895 92.5499 400.493 93.044 401.103 93.5233C410.918 101.202 422.103 103.846 434.376 103.173C447.321 101.76 458.383 96.0223 466.536 85.7673C467.026 85.1606 467.501 84.5416 467.96 83.9103C468.419 83.2796 468.862 82.6376 469.289 81.9843C469.716 81.331 470.125 80.6673 470.518 79.9933C470.911 79.3193 471.287 78.6356 471.645 77.9423C472.003 77.249 472.344 76.5473 472.667 75.8373C472.99 75.1266 473.294 74.4086 473.581 73.6833C473.868 72.9573 474.135 72.2246 474.385 71.4853C474.634 70.7459 474.865 70.0006 475.076 69.2493C475.287 68.4986 475.479 67.743 475.653 66.9823C475.826 66.2216 475.98 65.457 476.115 64.6883C476.25 63.9196 476.364 63.148 476.46 62.3733C476.556 61.5993 476.632 60.823 476.688 60.0443C476.744 59.2663 476.78 58.4873 476.797 57.7073C476.814 56.9273 476.81 56.1473 476.788 55.3673C476.765 54.5873 476.723 53.8083 476.661 53.0303C476.598 52.2523 476.516 51.4766 476.415 50.7033C476.317 49.9426 476.2 49.1846 476.065 48.4293C475.93 47.6739 475.775 46.9226 475.603 46.1753C475.43 45.428 475.239 44.6853 475.03 43.9473C474.821 43.2086 474.594 42.476 474.348 41.7493C474.102 41.0226 473.839 40.3023 473.559 39.5883C473.278 38.8743 472.98 38.168 472.664 37.4693C472.348 36.77 472.015 36.079 471.665 35.3963C471.315 34.7136 470.948 34.04 470.565 33.3753C470.182 32.7106 469.782 32.056 469.367 31.4113C468.952 30.766 468.52 30.1316 468.073 29.5083C467.626 28.885 467.164 28.273 466.687 27.6723C466.21 27.071 465.719 26.4823 465.212 25.9063C464.706 25.3296 464.186 24.766 463.652 24.2153C463.118 23.6646 462.57 23.1273 462.01 22.6033C461.449 22.0793 460.876 21.5696 460.291 21.0743C459.705 20.579 459.107 20.0983 458.498 19.6323C449.14 12.4243 437.551 9.38029 425.861 10.1783Z" fill="#034538"/>
<path d="M432.079 42.5824C434.471 42.5384 436.753 42.6024 439.129 42.8884C437.195 51.5224 434.715 60.0274 432.421 68.5694C431.498 72.0094 430.56 77.9734 428.822 80.9134C426.509 80.7884 424.17 80.8374 421.853 80.8234C422.861 73.9394 425.384 66.8854 427.189 60.1414C428.677 54.5804 429.892 47.8144 432.079 42.5824Z" fill="#034538"/>
<path d="M443.172 50.2466C451.097 52.5186 459.058 55.8216 466.489 59.3976C466.635 61.7702 466.723 64.1449 466.754 66.5216C461.434 69.4506 455.419 71.2226 449.786 73.4736C447.741 74.3466 445.557 74.9866 443.449 75.6986C443.264 73.2426 443.183 70.8406 443.234 68.3786C447.926 65.9966 453.716 64.6126 458.784 63.1676C453.536 61.4909 448.338 59.6692 443.19 57.7026C443.107 55.2236 443.17 52.7276 443.172 50.2466Z" fill="#034538"/>
<path d="M416.83 50.4395L417.43 50.5185C418.563 52.0285 417.859 55.7104 417.735 57.6024C412.736 59.4844 407.779 61.4155 402.721 63.1445C407.844 64.4475 412.855 66.5415 417.842 68.2895C418.022 70.8325 417.901 73.4295 417.882 75.9795C416.066 75.4175 414.27 74.7605 412.47 74.1465C406.494 71.5475 400.294 69.5075 394.373 66.7595C394.27 64.6735 393.766 61.7195 394.72 59.7955C395.818 57.5795 413.444 51.5615 416.83 50.4395Z" fill="#034538"/>
<path d="M291.521 66.3575C305.628 65.9845 320.288 68.7095 332.187 76.6295C341.609 82.9005 349.074 92.1884 351.235 103.502C352.323 109.202 352.02 115.971 348.602 120.866C348.273 121.329 347.922 121.774 347.548 122.201C347.174 122.629 346.78 123.036 346.366 123.424C345.952 123.812 345.52 124.179 345.069 124.524C344.619 124.87 344.152 125.192 343.668 125.49C343.186 125.789 342.689 126.063 342.179 126.311C341.669 126.561 341.148 126.784 340.616 126.982C340.084 127.18 339.544 127.35 338.994 127.493C338.445 127.637 337.89 127.753 337.329 127.841C331.237 128.859 325.176 128.296 320.088 124.6C311.72 118.522 309.4 107.367 309.891 97.6035C310.16 92.2575 311.167 86.3885 310.188 81.0925C309.668 78.2795 308.43 75.8115 305.987 74.2015C301.674 71.3585 295.049 72.1304 290.244 73.1534C280.888 75.1454 273.134 80.9145 267.978 88.9095C255.587 108.123 254.501 149.091 259.343 171.211C262.273 184.593 267.759 197.802 279.773 205.409C292.296 213.339 309.053 213.309 323.044 210.104C335.102 206.85 341.154 198.446 349.768 190.481C350.094 190.692 350.423 190.903 350.74 191.128C351.513 191.678 352.12 192.334 352.167 193.336C352.303 196.226 344.866 206.955 342.813 209.321C330.186 223.872 313.027 231.115 294.032 232.372C272.665 233.787 250.56 228.378 234.274 213.97C217.3 198.952 209.944 178.723 208.707 156.576C207.422 133.557 212.83 111.1 228.494 93.6055C244.969 75.2025 267.49 67.6445 291.521 66.3575Z" fill="#034538"/>
</svg>
