<svg width="76" height="100" viewBox="0 0 76 100" fill="none" xmlns="http://www.w3.org/2000/svg">
<path d="M76 87.7509C76 91.0573 74.6456 92.974 72.0026 93.9914C61.7332 97.9562 49.5701 100 37.9999 100C26.4314 100 14.2686 97.9562 3.99618 93.9914C1.35426 92.974 0 91.0571 0 87.7509V0H76V87.7509Z" fill="#0051A5"/>
<path fill-rule="evenodd" clip-rule="evenodd" d="M66.9636 76.1925C66.9151 76.0902 66.5344 75.2879 65.4357 74.6641C64.7926 74.3026 63.8466 73.8608 61.956 73.8605C58.5627 73.8605 56.0307 75.7556 56.1138 81.5615C56.2027 87.8528 60.3383 89.14 63.1588 89.14C66.5711 89.14 68.1628 87.6531 68.1628 87.6531V89.8763C68.1628 89.8763 66.3935 91.3089 61.8877 91.3089C57.0452 91.3089 51.5512 89.3222 51.5512 81.6708C51.5512 74.881 56.1632 71.7778 62.3235 71.7778C66.3934 71.7778 68.1046 73.0065 68.1046 73.0065L67.1514 76.2469C67.1514 76.2469 67.026 76.2675 66.969 76.2033C66.9686 76.2029 66.9668 76.1992 66.9636 76.1925ZM21.9137 91.0162H27.3696L20.3988 82.1053C23.1934 81.3576 25.2864 79.83 25.2864 77.0533C25.2864 73.7924 23.336 72.0677 18.2327 72.0677H7.69238V72.231C8.0802 72.3696 8.51459 72.6204 8.79874 72.9001C9.5364 73.6276 9.75637 74.7384 9.75637 76.2398V91.0163H14.1337V82.6171H15.7314L21.9137 91.0162ZM14.1338 73.8739H17.0827C19.5375 73.8739 20.8188 74.5909 20.8188 77.2005C20.8188 79.527 19.1422 80.9043 16.4542 80.9043H14.1337L14.1338 73.8739ZM42.576 80.3987C44.4943 80.0867 46.3297 78.594 46.3297 76.3374C46.3297 74.3026 45.4652 72.0677 39.4756 72.0677H29.3709V72.231C29.677 72.3244 30.1596 72.5723 30.4758 72.8858C31.1624 73.5562 31.3884 74.559 31.4218 75.8884V91.0163H39.7962C44.4025 91.0163 47.7363 89.2598 47.7363 85.2352C47.7364 81.9627 45.1897 80.569 42.576 80.3987ZM38.2673 73.8739C40.4101 73.8739 41.8634 74.3376 41.8634 76.6261C41.8634 79.0649 39.9157 79.7368 37.6944 79.7368H35.7805V73.8739H38.2673ZM38.4831 89.2247H35.7804V81.4888H38.3589C41.9012 81.4888 43.2611 82.5442 43.2611 85.2001C43.2611 88.0733 41.4872 89.2247 38.4831 89.2247Z" fill="white"/>
<path fill-rule="evenodd" clip-rule="evenodd" d="M68.2034 70.2372H68.9164L70.3012 65.5227C69.3173 64.1163 68.0608 63.049 66.1015 62.4078C70.5577 58.8526 71.9295 54.0683 71.9295 50.3599C71.9295 46.267 70.2908 42.592 67.8637 39.9652C68.4922 38.9253 69.5259 37.2283 70.1276 36.2404C70.3565 35.8645 70.5229 35.5913 70.5807 35.496C70.9175 34.9421 71.0939 34.0764 70.9801 33.3928C70.8431 32.5747 70.4976 32.0179 69.6215 31.5574C68.6288 31.037 62.5925 27.8839 62.5925 27.8839H48.3145L43.2272 30.932V22.0796H41.5931C42.0873 21.7049 42.4268 21.2837 42.6164 20.9893L42.4373 20.5929C40.6762 21.9774 39.7113 21.8828 36.3281 20.8185C34.4053 20.2152 32.713 20.868 31.5164 21.7953C31.4957 21.6144 31.4928 21.4266 31.5164 21.2326C31.6198 20.3172 32.3443 19.3332 34.8982 19.4936C36.8035 19.6103 38.3938 19.6378 38.9389 19.6351C40.6123 19.6276 41.6427 19.4178 42.3252 18.8975C43.4579 18.0328 43.6704 16.9557 43.7361 16.3596C43.831 15.5375 43.8833 14.2371 43.8833 13.2692V7.52452H21.4628V3.63702H15.6961C12.0462 3.63702 9.02591 6.33666 9.02591 9.8818C9.02591 13.2839 11.5988 15.848 15.011 15.848H15.3608V13.5827H15.011C13.0637 13.5827 12.2122 11.9895 12.326 10.0973C12.4427 8.12372 14.116 7.10634 15.5708 7.10634H18.2911V10.9938H26.2646V12.8539H24.1232V13.9735L28.5952 15.6744V10.9937H40.4156V13.6964C40.4156 14.4894 40.4156 14.9601 40.3356 15.4193C40.2685 15.797 40.1811 16.0901 39.8908 16.3743C39.6142 16.6484 39.1869 16.7359 38.6155 16.7693C37.8475 16.813 35.5777 16.864 34.2149 16.864C31.664 16.864 28.53 17.4544 28.53 21.1554C28.53 25.4178 32.3445 26.5793 34.3606 26.5415C36.1945 26.514 37.4406 25.8957 38.0543 25.3653H39.773V28.0679C37.585 27.2923 34.9655 27.7807 32.1347 28.3521C30.1727 28.7454 28.1435 29.0326 25.9789 29.0473C22.301 29.0751 18.7852 26.4367 18.3436 21.861L16.6176 20.8391C16.3291 25.7308 17.918 28.8899 23.027 31.5122C29.2193 34.6928 33.3838 37.6372 35.0574 42.9317H35.6449V38.9027C40.6737 42.1358 43.6767 44.9215 45.0147 48.0743C45.595 49.4359 46.2073 51.666 46.2918 53.4867H46.8779C47.2233 51.9152 47.4711 48.4941 46.4274 45.5759C46.2704 45.1344 46.0512 44.725 45.8359 44.3228C45.8231 44.2988 45.8102 44.2749 45.7974 44.2509L50.6327 44.474C50.5437 46.2276 50.5598 48.2709 50.8001 50.4593L49.0788 50.5524V51.105L50.8905 51.2083C50.9968 52.0087 51.1353 52.8279 51.3117 53.653H51.8411C51.8134 52.9125 51.8206 52.1135 51.8659 51.2654L60.1368 51.7332C60.1019 53.3761 59.9357 55.1327 59.5903 56.991L57.7725 57.2155V57.5728L59.4488 57.6967C59.3163 58.3454 59.1601 59.0028 58.981 59.6704H59.5145C59.8103 59.1631 60.1471 58.5305 60.4853 57.7767L67.0522 58.2869C65.9909 59.8408 64.7824 61.0857 63.2372 62.0639C62.8948 62.0842 62.2314 62.1687 61.9153 62.2182C60.9068 62.378 57.1835 62.947 53.8669 63.4539C51.7373 63.7793 49.7755 64.0791 48.8075 64.2286C48.5439 63.1703 48.2275 62.2562 47.9113 61.577C45.2462 55.8662 42.0775 53.7446 27.6127 44.0595C26.6331 43.4036 25.6016 42.713 24.5151 41.9843C19.0051 38.2906 10.3305 32.2719 7.75628 27.3681C6.92963 25.7981 6.53613 23.9572 6.53918 22.3041C6.54181 20.5111 7.08723 18.7475 8.14105 17.3509V15.7182C6.01733 16.8583 4.3133 19.9019 4.35543 23.272C4.3801 25.1569 4.56223 26.5445 5.21244 28.2602C6.28081 31.0939 8.12788 33.5573 12.7005 37.6753C16.9352 41.4945 19.906 44.7028 21.5413 49.0032H22.1288V44.6679C22.7803 45.1316 23.4349 45.5991 24.0828 46.062C24.4819 46.347 24.8785 46.6303 25.2704 46.9098H25.2688C29.1274 49.6706 33.2043 53.564 35.0571 57.711H35.6446V53.6924C42.6211 58.3744 47.6123 62.7502 48.7055 71.5823H49.2915C49.5875 69.4398 49.4095 67.1715 49.0307 65.2343H60.8246C64.6001 65.2343 68.2034 66.3057 68.2034 70.2372ZM32.8022 23.4659C33.9556 22.3668 35.0736 22.1189 37.0791 22.559C36.6811 23.0721 35.9801 23.7472 34.8547 23.826C34.0734 23.8827 33.3665 23.7355 32.8022 23.4659ZM41.5702 31.9276L35.9205 35.3139C34.1901 34.2146 31.6655 32.6011 30.9556 32.1157C31.455 32.0392 32.1219 31.8984 32.8619 31.742C34.4784 31.4006 36.4442 30.9853 37.7789 31.0063C39.2351 31.0254 40.4623 31.3752 41.5702 31.9276ZM61.934 34.5747L61.1513 35.6724C59.6308 35.152 57.8134 34.9858 56.2536 34.9859C51.484 34.9859 46.6651 37.5327 43.923 41.5223C42.6666 40.0692 40.8984 38.626 38.9758 37.2907L49.2085 31.1334H61.8188L67.5244 34.1158L65.3218 37.7381C64.6468 37.2905 64.1395 36.9552 63.5914 36.6929L64.3348 34.438L60.9237 32.5982L60.7213 32.9555L61.934 34.5747ZM59.5069 44.8776C59.8218 46.3805 60.0595 48.0845 60.1236 49.9679L51.9226 50.4023C52.0656 48.5935 52.3657 46.6078 52.8263 44.5746L59.5069 44.8776ZM62.5012 49.844C62.6105 48.3513 62.5886 46.7348 62.3743 45.0105L67.8827 45.2639C68.524 46.5658 68.9512 47.9898 69.1202 49.4926L62.5012 49.844ZM57.0495 38.0089C57.4839 38.7918 58.309 40.4537 58.9983 42.8428L53.1677 43.1663C53.6122 41.4548 54.1562 39.7655 54.8267 38.0949C54.8827 38.0887 54.9389 38.0824 54.9954 38.0761C55.3943 38.0315 55.804 37.9856 56.2112 37.9856C56.4927 37.9856 56.7724 37.9931 57.0495 38.0089ZM61.9735 42.678C61.701 41.4418 61.3292 40.1564 60.8364 38.8327C62.8523 39.5996 64.6295 40.856 66.0201 42.455L61.9735 42.678ZM69.1424 52.2478C69.0591 53.6471 68.7545 54.7534 68.2808 55.9022L60.8933 56.8321C61.44 55.4592 61.9531 53.7826 62.2636 51.8571L69.1424 52.2478ZM46.0046 43.5453C47.4215 41.5323 49.0087 40.1317 51.3134 39.0981C51.1561 39.8211 50.8821 41.2087 50.7128 43.299L46.0046 43.5453ZM6.09607 39.6765C6.39074 43.9886 9.87157 46.9011 20.4018 53.4751C31.5735 60.4485 34.6959 64.705 35.6451 70.228H35.0575C32.6376 64.9004 27.7136 61.9163 22.1293 58.7474V63.0463H21.5417C19.9181 59.259 17.1005 55.6395 12.9664 52.5375C9.13404 49.663 7.57721 48.2331 6.0962 45.9534C5.1182 44.4461 4.31927 42.5601 4.3208 40.0688C4.3208 38.5383 4.8238 36.8721 5.61968 35.6081L6.61224 36.2669C6.24465 37.3226 6.04645 38.7991 6.09607 39.6765Z" fill="#FEDF01"/>
</svg>
