<svg width="95" height="45" viewBox="0 0 95 45" fill="none" xmlns="http://www.w3.org/2000/svg">
<path d="M94.6279 0.78902L53.4209 8.99302V11.867L53.5519 11.833C80.7739 5.21602 94.6269 1.23602 94.7389 1.20802C94.8929 1.16802 94.9469 1.04802 94.9259 0.94702C94.9029 0.84102 94.7919 0.75302 94.6279 0.78902Z" fill="#49166D"/>
<path d="M61.125 0.00486498C59.122 0.118865 55.413 3.08587 53.377 4.84787C45.27 11.8619 39.242 18.3089 34.859 25.0609C25.722 29.9549 14.071 34.9879 2.505 38.9159L2.226 39.0099L0 45.0049L1.271 44.5129C8.629 41.7089 20.91 36.4429 32.043 30.5889C31.416 32.2609 31.1 33.7979 31.1 35.1999C31.1 36.2439 31.275 37.2159 31.624 38.0999C32.324 39.8639 33.704 41.1999 35.617 41.9599C38.466 43.0959 42.353 43.1169 46.788 41.7749C58.118 38.3399 71.557 27.7959 74.483 25.6989L74.595 25.6199C74.71 25.5369 74.718 25.4119 74.67 25.3269C74.606 25.2299 74.471 25.2039 74.36 25.2719L74.216 25.3589C71.076 27.2439 55.818 36.3029 45.9 38.9619C40.848 40.3169 36.998 39.5779 35.546 37.5459C35.042 36.8519 34.799 35.9739 34.799 34.9499C34.799 32.9509 35.74 30.4059 37.552 27.5769C39.22 26.6279 40.778 25.6999 42.182 24.8179C51.858 19.3799 63.006 8.80686 63.482 2.35286C63.484 2.30886 63.484 2.25787 63.484 2.20987C63.484 1.65287 63.243 1.07987 62.82 0.656865C62.366 0.193865 61.768 -0.037135 61.125 0.00486498ZM60.046 3.08087C60.681 2.66987 60.864 2.92687 60.677 3.39087C60.375 4.13187 58.978 8.58987 48.605 17.1059C45.898 19.3229 43.973 20.5679 40.075 22.8759C46.458 13.9309 55.777 5.85287 60.046 3.08087Z" fill="#66CC00"/>
<path d="M53.286 9.02002L9.93201 18.339L8.26001 22.848L53.421 11.866L54.818 11.077L54.779 9.02502L53.286 9.02002Z" fill="#49166D"/>
</svg>
