<svg width="60" height="57" viewBox="0 0 60 57" fill="none" xmlns="http://www.w3.org/2000/svg">
<path d="M6.09891 16.8859C1.94709 13.7467 6.69889 8.93006 9.74676 12.261C12.2187 14.9449 13.8986 16.9818 12.5306 18.6113C11.4027 19.9053 8.13883 18.4196 6.09891 16.8859Z" fill="white"/>
<path d="M19.9708 4.92834C18.0269 0.0877118 24.6026 -1.58974 25.4905 2.84351C26.2105 6.41408 26.6185 9.0261 24.6026 9.69708C22.9467 10.2482 20.9307 7.30073 19.9708 4.92834Z" fill="white"/>
<path d="M38.3542 2.91542C39.4581 -2.16484 45.8419 0.111691 44.0899 4.28134C42.674 7.6602 41.546 10.0326 39.4821 9.45746C37.8262 8.97819 37.8022 5.40763 38.3542 2.91542Z" fill="white"/>
<path d="M54.5037 11.5901C58.2955 8.01956 62.2553 13.5072 58.4635 15.9515C55.3916 17.9405 53.1117 19.2584 51.7438 17.6289C50.6158 16.287 52.6317 13.3395 54.5037 11.5901Z" fill="white"/>
<path d="M33.6023 26.3756C35.0902 25.3931 36.4101 24.3147 37.5861 23.2124C34.3942 19.9294 31.5863 18.0603 30.2184 17.2695C29.7384 17.557 29.2584 17.8206 28.7305 18.0842C28.3945 18.228 28.0825 18.3958 27.7465 18.5156C28.2265 19.6419 29.6904 23.2364 31.5143 27.6457C32.2103 27.2383 32.9063 26.8309 33.6023 26.3756ZM23.5707 19.6179C22.5867 23.2603 22.2507 26.9747 22.3467 30.4973C24.5546 30.4254 27.1465 29.7545 29.8104 28.5084L25.7306 19.1865C24.9866 19.4022 24.2667 19.546 23.5707 19.6179ZM38.714 22.0622C39.914 20.7442 40.8739 19.4022 41.5459 18.0842C38.3061 15.9515 35.3542 14.8012 33.8182 14.274C33.2183 15.0169 32.4263 15.7358 31.4903 16.4307C34.2982 18.1322 36.6741 20.0492 38.714 22.0622ZM28.4665 42.4312C30.4824 41.88 32.6423 41.0892 34.8742 40.0827L30.6024 30.3056C27.6505 31.5996 24.7946 32.2227 22.4187 32.1268C22.4907 33.4209 22.6107 34.667 22.7787 35.8652C23.2827 36.3684 23.5467 37.0394 23.7147 37.4467C23.9787 38.1417 23.9067 39.1482 23.5227 40.2984C23.5227 40.3224 23.5227 40.3224 23.5227 40.3463C23.9787 40.1546 24.5066 40.0108 25.0346 39.9629C25.8746 39.891 27.7225 40.0348 28.4665 42.4312ZM40.13 23.5C42.9619 26.5913 45.0258 29.8024 46.5137 32.678C48.4576 31.0006 50.0416 29.2752 51.1935 27.6696C48.8176 24.0032 45.9377 21.2234 43.1539 19.1865C42.4339 20.6244 41.4259 22.0861 40.13 23.5ZM51.7695 26.783C52.4415 25.7046 52.8974 24.6502 53.0894 23.6917C51.1215 19.3064 47.8816 15.8556 44.0178 13.5551C44.3538 14.6814 44.2818 15.9754 43.8498 17.3653C47.6897 20.217 50.1856 23.6917 51.7695 26.783ZM41.0659 49.8838C40.9699 49.9317 40.8499 49.9797 40.754 50.0276C41.2339 51.1778 41.5459 51.9447 41.6659 52.2083C42.1939 53.5263 40.8979 53.8138 40.634 53.2387C40.562 53.0709 40.058 51.9447 39.434 50.4829C34.5382 52.0884 30.6744 52.1124 30.6744 52.1124C33.7943 51.4414 36.5541 50.5308 39.002 49.4764C37.5621 46.1934 35.7142 41.9758 35.7142 41.9758C33.2663 43.0542 30.8904 43.869 28.6825 44.3722C28.6585 44.6118 28.5865 44.8754 28.5145 45.139C29.2344 45.6183 30.5544 46.7686 30.7224 48.6617C30.9144 50.6506 29.7384 52.7594 27.2425 54.9641C31.7303 56.0424 36.6021 55.7788 41.1859 53.8617C47.3777 51.2977 51.7935 46.2893 53.8334 40.4422C50.1616 45.3787 45.3618 48.2303 41.0659 49.8838ZM39.842 37.4707C41.8099 36.2965 43.6098 35.0504 45.2178 33.7564C43.2498 30.042 41.0659 27.0705 38.954 24.6742C37.7541 25.8244 36.3861 26.9268 34.8742 27.9332C34.0102 28.5084 33.1463 29.0116 32.2823 29.4669C33.5783 32.6301 35.0182 36.1048 36.3621 39.3638C37.5141 38.7887 38.69 38.1656 39.842 37.4707ZM54.2654 26.8549C53.9054 27.5977 53.4254 28.3646 52.8734 29.1314C54.1934 32.3186 54.5294 34.643 54.5294 34.643C53.9294 32.8697 53.2094 31.2402 52.3935 29.7305C51.1215 31.36 49.4656 33.0375 47.4977 34.6909C48.6736 37.3269 49.7536 40.1786 50.2575 41.8081C53.5454 38.3094 55.0093 34.8587 55.1053 32.8697C55.1053 32.702 55.1053 32.5582 55.1053 32.3904C55.1053 32.2227 55.0813 32.0789 55.0813 31.9591C55.0093 30.2577 54.7454 28.5563 54.2654 26.8549ZM20.8828 30.4254C20.8108 25.3212 21.6508 21.3193 22.0588 19.6658C20.4268 19.5939 19.2029 19.0667 18.7229 18.0842C18.6029 17.8206 18.5309 17.5331 18.5069 17.2455C19.8988 18.9469 23.8587 18.875 27.7945 16.9819C31.3944 15.2565 33.8183 12.5487 33.8422 10.4399C30.5064 10.2482 27.0985 10.7514 23.8107 12.1173C12.5312 16.7902 7.05939 29.5627 11.3072 40.8975C12.0032 40.538 12.9151 39.9629 14.1151 38.9564C17.283 36.2965 19.3949 35.1223 20.9788 35.1223C21.0748 35.1223 21.1468 35.1462 21.2428 35.1462C21.0988 34.0679 21.0028 32.9895 20.9548 31.9831C19.2989 31.6715 17.9789 30.9287 17.163 29.7305C16.755 29.1074 16.515 28.3885 16.443 27.6217C16.539 27.8613 16.659 28.101 16.803 28.3166C17.5949 29.5388 19.0589 30.2337 20.8828 30.4254ZM42.2899 16.287C42.6979 14.969 42.7699 13.7468 42.4339 12.6924C40.13 11.5662 37.6341 10.8233 35.0662 10.5118C35.3062 11.2307 35.1622 12.0694 34.7062 12.956C37.6341 13.7948 40.154 14.921 42.2899 16.287ZM48.9616 43.1021C48.1696 40.6579 47.0897 37.6385 46.1777 35.7453C44.7138 36.8716 43.1059 37.9979 41.3539 39.0283C39.962 39.8671 38.546 40.6099 37.1541 41.2809C38.2821 44.0127 39.482 46.8644 40.298 48.8773C43.9218 47.1759 46.7777 45.163 48.9616 43.1021Z" fill="white"/>
<path d="M21.5776 41.305C22.4416 39.6036 22.5376 38.4294 22.3936 38.046C22.0816 37.2312 21.8176 36.704 21.0497 36.704C19.9217 36.704 17.9538 37.8782 15.2179 40.1787C11.954 42.9345 9.43415 43.6534 8.3302 42.2635C7.61023 41.3529 7.53823 39.6515 8.11421 37.2072C8.2342 36.68 8.4022 35.0984 8.47419 33.9242L8.54619 32.774C8.61819 31.3122 8.69018 30.2339 8.71418 29.7306C8.52219 29.6827 8.3302 29.6348 8.11421 29.6348C4.20238 29.7546 1.51449 30.4256 0.482534 31.5518C0.122549 31.9353 -0.0214449 32.3666 0.00255409 32.8698C0.122549 34.6911 1.53849 35.5777 4.32237 35.5777C4.70635 35.5777 5.06634 35.5538 5.45032 35.5298C5.59432 35.5298 5.71431 35.5058 5.83431 35.5058C6.55428 35.5058 7.01026 35.6975 7.25025 36.081C7.58623 36.6081 7.46624 37.375 6.84226 38.645C5.28233 41.8562 4.34637 46.0977 5.71431 48.2784C6.57827 49.6443 8.3062 50.0277 10.7781 49.3567C17.7378 47.5355 20.6417 43.1262 21.5776 41.305Z" fill="white"/>
<path d="M26.6171 49.4048C24.6012 51.9689 21.9373 54.1496 19.4414 55.3717C19.9454 55.7312 20.7373 56.1386 21.7693 56.1386C22.8493 56.1386 24.0012 55.6833 25.1532 54.7966C27.889 52.7118 29.281 50.7947 29.305 49.1173C29.305 48.1108 28.825 47.3679 28.297 46.8887C27.865 47.6795 27.3131 48.5422 26.6171 49.4048Z" fill="white"/>
<path d="M25.4663 41.5208C24.5303 41.5208 23.4744 42.1438 23.0904 42.3834C22.0104 44.3724 18.7946 49.0453 11.5469 51.0582C12.1948 53.3827 13.4668 54.5569 15.3627 54.5569C18.3866 54.5569 22.1784 51.7053 24.6263 48.8536C26.4262 46.7688 27.4102 44.7558 27.2422 43.6056C27.0502 42.2157 26.4742 41.5208 25.4663 41.5208Z" fill="white"/>
<path fill-rule="evenodd" clip-rule="evenodd" d="M6.09891 16.8859C1.94709 13.7467 6.69889 8.93006 9.74676 12.261C12.2187 14.9449 13.8986 16.9818 12.5306 18.6113C11.4027 19.9053 8.13883 18.4196 6.09891 16.8859Z" fill="#F15248"/>
<path fill-rule="evenodd" clip-rule="evenodd" d="M19.9708 4.92834C18.0269 0.0877118 24.6026 -1.58974 25.4905 2.84351C26.2105 6.41408 26.6185 9.0261 24.6026 9.69708C22.9467 10.2482 20.9307 7.30073 19.9708 4.92834Z" fill="#F46C3F"/>
<path fill-rule="evenodd" clip-rule="evenodd" d="M38.3542 2.91542C39.4581 -2.16484 45.8419 0.111691 44.0899 4.28134C42.674 7.6602 41.546 10.0326 39.4821 9.45746C37.8262 8.97819 37.8022 5.40763 38.3542 2.91542Z" fill="#F6921E"/>
<path fill-rule="evenodd" clip-rule="evenodd" d="M54.5037 11.5901C58.2955 8.01956 62.2553 13.5072 58.4635 15.9515C55.3916 17.9405 53.1117 19.2584 51.7438 17.6289C50.6158 16.287 52.6317 13.3395 54.5037 11.5901Z" fill="#FAAF40"/>
<path d="M33.6023 26.3756C35.0902 25.3931 36.4101 24.3147 37.5861 23.2124C34.3942 19.9294 31.5863 18.0603 30.2184 17.2695C29.7384 17.557 29.2584 17.8206 28.7305 18.0842C28.3945 18.228 28.0825 18.3958 27.7465 18.5156C28.2265 19.6419 29.6904 23.2364 31.5143 27.6457C32.2103 27.2383 32.9063 26.8309 33.6023 26.3756ZM23.5707 19.6179C22.5867 23.2603 22.2507 26.9747 22.3467 30.4973C24.5546 30.4254 27.1465 29.7545 29.8104 28.5084L25.7306 19.1865C24.9866 19.4022 24.2667 19.546 23.5707 19.6179ZM38.714 22.0622C39.914 20.7442 40.8739 19.4022 41.5459 18.0842C38.3061 15.9515 35.3542 14.8012 33.8182 14.274C33.2183 15.0169 32.4263 15.7358 31.4903 16.4307C34.2982 18.1322 36.6741 20.0492 38.714 22.0622ZM28.4665 42.4312C30.4824 41.88 32.6423 41.0892 34.8742 40.0827L30.6024 30.3056C27.6505 31.5996 24.7946 32.2227 22.4187 32.1268C22.4907 33.4209 22.6107 34.667 22.7787 35.8652C23.2827 36.3684 23.5467 37.0394 23.7147 37.4467C23.9787 38.1417 23.9067 39.1482 23.5227 40.2984C23.5227 40.3224 23.5227 40.3224 23.5227 40.3463C23.9787 40.1546 24.5066 40.0108 25.0346 39.9629C25.8746 39.891 27.7225 40.0348 28.4665 42.4312ZM40.13 23.5C42.9619 26.5913 45.0258 29.8024 46.5137 32.678C48.4576 31.0006 50.0416 29.2752 51.1935 27.6696C48.8176 24.0032 45.9377 21.2234 43.1539 19.1865C42.4339 20.6244 41.4259 22.0861 40.13 23.5ZM51.7695 26.783C52.4415 25.7046 52.8974 24.6502 53.0894 23.6917C51.1215 19.3064 47.8816 15.8556 44.0178 13.5551C44.3538 14.6814 44.2818 15.9754 43.8498 17.3653C47.6897 20.217 50.1856 23.6917 51.7695 26.783ZM41.0659 49.8838C40.9699 49.9317 40.8499 49.9797 40.754 50.0276C41.2339 51.1778 41.5459 51.9447 41.6659 52.2083C42.1939 53.5263 40.8979 53.8138 40.634 53.2387C40.562 53.0709 40.058 51.9447 39.434 50.4829C34.5382 52.0884 30.6744 52.1124 30.6744 52.1124C33.7943 51.4414 36.5541 50.5308 39.002 49.4764C37.5621 46.1934 35.7142 41.9758 35.7142 41.9758C33.2663 43.0542 30.8904 43.869 28.6825 44.3722C28.6585 44.6118 28.5865 44.8754 28.5145 45.139C29.2344 45.6183 30.5544 46.7686 30.7224 48.6617C30.9144 50.6506 29.7384 52.7594 27.2425 54.9641C31.7303 56.0424 36.6021 55.7788 41.1859 53.8617C47.3777 51.2977 51.7935 46.2893 53.8334 40.4422C50.1616 45.3787 45.3618 48.2303 41.0659 49.8838ZM39.842 37.4707C41.8099 36.2965 43.6098 35.0504 45.2178 33.7564C43.2498 30.042 41.0659 27.0705 38.954 24.6742C37.7541 25.8244 36.3861 26.9268 34.8742 27.9332C34.0102 28.5084 33.1463 29.0116 32.2823 29.4669C33.5783 32.6301 35.0182 36.1048 36.3621 39.3638C37.5141 38.7887 38.69 38.1656 39.842 37.4707ZM54.2654 26.8549C53.9054 27.5977 53.4254 28.3646 52.8734 29.1314C54.1934 32.3186 54.5294 34.643 54.5294 34.643C53.9294 32.8697 53.2094 31.2402 52.3935 29.7305C51.1215 31.36 49.4656 33.0375 47.4977 34.6909C48.6736 37.3269 49.7536 40.1786 50.2575 41.8081C53.5454 38.3094 55.0093 34.8587 55.1053 32.8697C55.1053 32.702 55.1053 32.5582 55.1053 32.3904C55.1053 32.2227 55.0813 32.0789 55.0813 31.9591C55.0093 30.2577 54.7454 28.5563 54.2654 26.8549ZM20.8828 30.4254C20.8108 25.3212 21.6508 21.3193 22.0588 19.6658C20.4268 19.5939 19.2029 19.0667 18.7229 18.0842C18.6029 17.8206 18.5309 17.5331 18.5069 17.2455C19.8988 18.9469 23.8587 18.875 27.7945 16.9819C31.3944 15.2565 33.8183 12.5487 33.8422 10.4399C30.5064 10.2482 27.0985 10.7514 23.8107 12.1173C12.5312 16.7902 7.05939 29.5627 11.3072 40.8975C12.0032 40.538 12.9151 39.9629 14.1151 38.9564C17.283 36.2965 19.3949 35.1223 20.9788 35.1223C21.0748 35.1223 21.1468 35.1462 21.2428 35.1462C21.0988 34.0679 21.0028 32.9895 20.9548 31.9831C19.2989 31.6715 17.9789 30.9287 17.163 29.7305C16.755 29.1074 16.515 28.3885 16.443 27.6217C16.539 27.8613 16.659 28.101 16.803 28.3166C17.5949 29.5388 19.0589 30.2337 20.8828 30.4254ZM42.2899 16.287C42.6979 14.969 42.7699 13.7468 42.4339 12.6924C40.13 11.5662 37.6341 10.8233 35.0662 10.5118C35.3062 11.2307 35.1622 12.0694 34.7062 12.956C37.6341 13.7948 40.154 14.921 42.2899 16.287ZM48.9616 43.1021C48.1696 40.6579 47.0897 37.6385 46.1777 35.7453C44.7138 36.8716 43.1059 37.9979 41.3539 39.0283C39.962 39.8671 38.546 40.6099 37.1541 41.2809C38.2821 44.0127 39.482 46.8644 40.298 48.8773C43.9218 47.1759 46.7777 45.163 48.9616 43.1021Z" fill="url(#paint0_linear_727_1452)"/>
<path fill-rule="evenodd" clip-rule="evenodd" d="M21.5776 41.305C22.4416 39.6036 22.5376 38.4294 22.3936 38.046C22.0816 37.2312 21.8176 36.704 21.0497 36.704C19.9217 36.704 17.9538 37.8782 15.2179 40.1787C11.954 42.9345 9.43415 43.6534 8.3302 42.2635C7.61023 41.3529 7.53823 39.6515 8.11421 37.2072C8.2342 36.68 8.4022 35.0984 8.47419 33.9242L8.54619 32.774C8.61819 31.3122 8.69018 30.2339 8.71418 29.7306C8.52219 29.6827 8.3302 29.6348 8.11421 29.6348C4.20238 29.7546 1.51449 30.4256 0.482534 31.5518C0.122549 31.9353 -0.0214449 32.3666 0.00255409 32.8698C0.122549 34.6911 1.53849 35.5777 4.32237 35.5777C4.70635 35.5777 5.06634 35.5538 5.45032 35.5298C5.59432 35.5298 5.71431 35.5058 5.83431 35.5058C6.55428 35.5058 7.01026 35.6975 7.25025 36.081C7.58623 36.6081 7.46624 37.375 6.84226 38.645C5.28233 41.8562 4.34637 46.0977 5.71431 48.2784C6.57827 49.6443 8.3062 50.0277 10.7781 49.3567C17.7378 47.5355 20.6417 43.1262 21.5776 41.305Z" fill="#FD6535"/>
<path fill-rule="evenodd" clip-rule="evenodd" d="M26.6171 49.4048C24.6012 51.9689 21.9373 54.1496 19.4414 55.3717C19.9454 55.7312 20.7373 56.1386 21.7693 56.1386C22.8493 56.1386 24.0012 55.6833 25.1532 54.7966C27.889 52.7118 29.281 50.7947 29.305 49.1173C29.305 48.1108 28.825 47.3679 28.297 46.8887C27.865 47.6795 27.3131 48.5422 26.6171 49.4048Z" fill="#FD6535"/>
<path fill-rule="evenodd" clip-rule="evenodd" d="M25.4663 41.5208C24.5303 41.5208 23.4744 42.1438 23.0904 42.3834C22.0104 44.3724 18.7946 49.0453 11.5469 51.0582C12.1948 53.3827 13.4668 54.5569 15.3627 54.5569C18.3866 54.5569 22.1784 51.7053 24.6263 48.8536C26.4262 46.7688 27.4102 44.7558 27.2422 43.6056C27.0502 42.2157 26.4742 41.5208 25.4663 41.5208Z" fill="#FD6535"/>
<defs>
<linearGradient id="paint0_linear_727_1452" x1="47.8379" y1="17.571" x2="17.8512" y2="47.7771" gradientUnits="userSpaceOnUse">
<stop stop-color="#5E89F2"/>
<stop offset="1" stop-color="#4578F3"/>
</linearGradient>
</defs>
</svg>
