<svg width="1307" height="416" viewBox="0 0 1307 416" fill="none" xmlns="http://www.w3.org/2000/svg">
<path d="M859.986 180.938L875.426 180.797C875.446 192.678 876.056 204.948 874.966 216.768C874.686 216.578 874.376 216.438 874.146 216.198C872.176 214.148 872.816 200.518 872.506 196.688C867.986 192.318 863.476 188.028 859.466 183.186L859.986 180.938Z" fill="#E9A792"/>
<path d="M682.066 0.177002L889.796 0.125L889.736 37.852L767.206 37.858C745.976 37.857 724.526 38.52 703.326 37.751C704.996 36.483 706.816 35.663 708.766 34.891C709.246 34.701 709.736 34.523 710.216 34.339C705.516 28.847 684.236 6.91397 678.906 3.81897C677.046 2.73497 672.916 2.48797 670.616 1.55597C673.696 1.52897 678.056 1.964 680.896 0.729004C681.296 0.557004 681.676 0.361002 682.066 0.177002Z" fill="url(#paint0_linear_752_45)"/>
<path d="M639.733 0.0358465C653.842 -0.00748683 667.953 0.0395654 682.066 0.176899C681.676 0.360899 681.296 0.556901 680.896 0.728901C678.056 1.9639 673.696 1.52887 670.616 1.55587C672.916 2.48787 677.046 2.73487 678.906 3.81887C684.236 6.91387 705.516 28.8469 710.216 34.3389C709.736 34.5229 709.246 34.7009 708.766 34.8909C706.816 35.6629 704.996 36.4829 703.326 37.7509L682.246 37.9639L682.156 180.968L799.156 180.881C819.346 180.867 839.826 180.138 859.986 180.938L859.466 183.186C863.476 188.028 867.986 192.318 872.506 196.688C872.816 200.518 872.176 214.148 874.146 216.198C874.376 216.438 874.686 216.578 874.966 216.768L874.176 216.458L874.446 217.998C867.776 220.338 701.626 218.728 682.156 218.778L682.246 415.268L639.721 415.338L639.733 0.0358465Z" fill="url(#paint1_linear_752_45)"/>
<path d="M968.856 0.184937L1021.57 0.245911C1052.42 42.8139 1081.3 87.1539 1110.92 130.597L1264 354.338L1263.92 73.7179C1263.92 64.7049 1262.56 6.37694 1264.11 1.93494C1264.36 1.22794 1265.03 0.750936 1265.49 0.158936C1279.06 0.342936 1292.64 0.416611 1306.22 0.379944C1306.19 10.3659 1306.68 20.7289 1306.06 30.6759C1307 74.3839 1306.23 118.267 1306.24 161.991L1306.32 414.728L1254.23 414.818C1244.46 402.858 1236.04 389.318 1227.34 376.538L1179.56 305.878L1075.37 152.239C1053.96 120.595 1032.94 88.6019 1010.93 57.3789C1009.89 97.6999 1010.78 138.235 1010.76 178.587L1010.71 414.818L968.926 414.848L968.856 0.184937Z" fill="url(#paint2_linear_752_45)"/>
<path d="M1265.49 0.158936C1279.06 0.342936 1292.64 0.416611 1306.22 0.379944C1306.19 10.3659 1306.68 20.7289 1306.06 30.6759L1304.86 30.1619L1303.24 31.2739C1301.72 36.1449 1302.35 41.7169 1302.42 46.7809C1301.23 45.8259 1300.07 44.8859 1298.96 43.8499C1292.54 37.9149 1269.62 17.3919 1266.93 11.1379C1266.42 9.92694 1266.44 8.38189 1266.4 7.08789C1266.35 5.29889 1266.26 3.72791 1265.89 1.96991L1265.49 0.158936Z" fill="#F9CD8D"/>
<path d="M502.48 0L581.526 0.0279541L460.199 415.288L388.42 415.318L328.761 224.098L303.973 144.553C299.563 130.546 295.671 115.969 290.376 102.294C268.38 177.962 243.809 252.968 220.268 328.168C211.203 357.128 201.56 386.078 193.344 415.278C174.033 415.308 154.537 415.908 135.252 415.018C130.949 415.688 126.056 415.278 121.676 415.318C118.907 404.978 115.473 394.818 112.764 384.448C73.815 256.738 38.209 127.96 0 0.0199585L81.209 0.09198L133.005 195.858C142.636 232.238 153.637 268.708 161.964 305.388C170.747 280.498 177.474 254.538 185.015 229.228L228.49 84.755C236.853 56.637 244.255 27.871 253.624 0.0939941L330.257 0.211975C348.038 56.086 363.341 112.967 380 169.211L405.651 255.558C410.539 271.958 415.924 288.338 420.09 304.918C425.548 288.358 429.654 271.248 434.198 254.408L456.604 171.186C471.913 114.265 488.824 57.314 502.48 0Z" fill="url(#paint3_linear_752_45)"/>
<path d="M112.764 384.448L115.189 380.898C115.526 380.948 142.087 406.278 144.142 408.678C144.847 409.498 145.568 410.518 145.375 411.628L143.142 411.378L144.006 411.908L142.671 412.138C139.764 412.678 137.418 412.818 135.252 415.018C130.949 415.688 126.056 415.278 121.676 415.318C118.907 404.978 115.473 394.818 112.764 384.448Z" fill="#C2499E"/>
<defs>
<linearGradient id="paint0_linear_752_45" x1="841.734" y1="-41.0974" x2="738.528" y2="62.4519" gradientUnits="userSpaceOnUse">
<stop stop-color="#FBD38D"/>
<stop offset="1" stop-color="#E9A693"/>
</linearGradient>
<linearGradient id="paint1_linear_752_45" x1="771.693" y1="95.6798" x2="549.653" y2="317.642" gradientUnits="userSpaceOnUse">
<stop stop-color="#E9A693"/>
<stop offset="1" stop-color="#C2479F"/>
</linearGradient>
<linearGradient id="paint2_linear_752_45" x1="1299.38" y1="44.3894" x2="951.939" y2="391.969" gradientUnits="userSpaceOnUse">
<stop stop-color="#F8CA8E"/>
<stop offset="1" stop-color="#C1479F"/>
</linearGradient>
<linearGradient id="paint3_linear_752_45" x1="505.428" y1="-67.559" x2="86.3989" y2="351.417" gradientUnits="userSpaceOnUse">
<stop stop-color="#FBD38D"/>
<stop offset="1" stop-color="#C34B9E"/>
</linearGradient>
</defs>
</svg>
